<?xml version="1.0" standalone="no"?>
<!DOCTYPE svg PUBLIC "-//W3C//DTD SVG 1.1//EN" "http://www.w3.org/Graphics/SVG/1.1/DTD/svg11.dtd" >
<svg xmlns="http://www.w3.org/2000/svg" xmlns:xlink="http://www.w3.org/1999/xlink" version="1.1">
<metadata>
Created by FontForge 20201107 at Wed Mar  1 09:45:14 2023
 By 
Joannavu
</metadata>
<defs>
<font id="kingsandpirates" horiz-adv-x="621" >
  <font-face 
    font-family="kings and pirates"
    font-weight="500"
    font-stretch="normal"
    units-per-em="1000"
    panose-1="2 0 6 3 0 0 0 0 0 0"
    ascent="800"
    descent="-200"
    x-height="719"
    cap-height="721"
    bbox="-405.129 -508.588 1694.29 1014.61"
    underline-thickness="50"
    underline-position="-150"
    unicode-range="U+0020-F8FE"
  />
<missing-glyph horiz-adv-x="500" 
d="M100 50h300v433h-300v-433zM50 0v533h400v-533h-400z" />
    <glyph glyph-name=".notdef" horiz-adv-x="500" 
d="M100 50h300v433h-300v-433zM50 0v533h400v-533h-400z" />
    <glyph glyph-name=".null" horiz-adv-x="0" 
 />
    <glyph glyph-name="nonmarkingreturn" horiz-adv-x="333" 
 />
    <glyph glyph-name="space" unicode=" " horiz-adv-x="300" 
 />
    <glyph glyph-name="exclam" unicode="!" horiz-adv-x="301" 
d="M134 -51q-6 -20 8 -29q6 29 24 36q19 11 38 -6q18 -17 12 -37q-8 -23 -46 -31q-25 -4 -41 11.5t-14.5 39t22.5 38.5q6 4 9 -1q4 -5 -2 -9q-4 -3 -10 -11v-1zM173 56l2 -1q12 -3 17 -5q8 -3 12 -9q0 -1 1 -2t1 -4v-1q3 -7 1 -17v-2q-2 -5 -7 -5h-2q-20 4 -30 7q2 -4 4 -6
q5 -3 16 -7h1q14 -5 17 -7h1l2 -4q7 -18 -6 -26q-9 -6 -25 -3q-31 5 -43 26q-1 1 -1 3q-6 18 -8 54q-1 17 2 30q5 15 16 15q19 2 34 -3q25 -8 24 -29q0 -2 -3 -5q-4 -2 -6 -1q-6 2 -20 2zM75 128q12 -4 43 1q14 2 25 10t15 15l5 6q10 -20 63 -23q28 -1 49.5 -24.5t5.5 -40.5
q-21 -23 -42 -8q-19 13 -8 32q1 1 2 3q5 6 -17 8q-55 6 -110 -11q-51 -15 -74 18q-15 22 -1 36q3 3 8 5q19 6 28 -0.5t9 -16.5zM112 174q-2 232 3 352t15 168.5t34 103.5q1 2 5 -5.5t9 -28.5t11 -52.5t10.5 -83.5t7 -115t1 -153.5t-7.5 -193.5q-1 1 -7.5 -0.5t-14 4.5
t-7.5 19q-1 65 0.5 179.5t0 164.5t-8.5 55q-5 4 -8 -24q-4 -43 1 -373q0 -15 -11 -19t-22 -1z" />
    <glyph glyph-name="quotedbl" unicode="&#x22;" horiz-adv-x="410" 
d="M236 519l71 95h88q-38 -56 -79 -84q-18 -12 -38 -15t-31 1zM53 517l71 94h88q-37 -56 -79 -84q-18 -12 -38 -14.5t-31 1.5z" />
    <glyph glyph-name="numbersign" unicode="#" horiz-adv-x="689" 
d="M350 421q-42 -2 -85 -6q-12 -39 -40 -123q7 3 16 3q0 1 2 1q46 6 73 7q0 3 2 8t2 7q13 48 27 92q1 2 2 5.5t1 5.5zM464 431q-7 -32 -11 -47q-1 -1 -1 -3q-7 -24 -23 -76q67 -4 96 -8q89 -15 130 -47q6 -4 13 -12t7 -12q0 -3 -6.5 -7.5t-10.5 -5.5q-6 -1 -18.5 2.5
t-19.5 3.5q-13 2 -42.5 -3t-43.5 -5q-6 0 -22 1t-25 0q-5 -1 -14.5 -3.5t-13.5 -2.5q-3 0 -62 -3q-9 -29 -65 -190q-55 -164 -80 -222q-3 -6 -9.5 -21.5t-12 -27t-7.5 -12.5q-1 -1 -2.5 1.5t-3 6.5t-3 9.5t-2 11t-0.5 9.5q0 12 15 92q4 23 9 75.5t10 80.5q2 12 9 36t9 36
q1 7 2 21t3 21q5 26 15 62q-4 0 -12 -2t-12 -2q-11 -1 -32.5 -5.5t-32.5 -5.5q-6 0 -10 -1q-14 -40 -20 -58q-47 -137 -74 -185q-2 -4 -8 -15t-11 -18.5t-7 -8.5q-2 0 -5 4.5t-5 11.5t-2 12q0 9 1.5 20t5.5 26.5t5 22.5q3 18 6 63t8 71q3 20 13 53q-16 8 -20 13q-7 10 -9 18
q-6 16 -3 25q0 3 13 11q17 12 34 18q6 25 20 72.5t19 66.5q-23 -4 -31 -5q-9 -1 -23.5 -1h-22.5q-4 0 -15.5 -2.5t-16.5 -1.5q-13 2 -26 18q-1 1 -5.5 7t-6.5 9q-9 16 -9 23q4 8 11 12q16 15 52 29q10 4 57 12q3 1 21 6t31 7q2 0 3 1q5 0 17 2q16 50 26 72q4 10 36 65
q26 48 35 59q9 9 26.5 20t23.5 10q8 0 20 -8q14 -12 14 -21q0 -5 -7 -24q0 -1 -29 -84q-5 -15 -15.5 -40t-13.5 -32l-3 -9q60 0 88 -1q5 12 15.5 35t14.5 32q2 6 14.5 35.5t18.5 41.5q8 13 25.5 33.5t24.5 22.5q9 4 21 -2q5 -2 11 -10.5t6 -11.5l-6 -36q-7 -35 -28 -115
q-2 -6 -5.5 -18t-5.5 -18q67 -12 98 -37q14 -14 12 -22q-1 -3 -5.5 -8t-7.5 -6q-5 -1 -7.5 -0.5t-9.5 2t-12 1.5q-11 2 -40 -4t-44 -6h-9z" />
    <glyph glyph-name="dollar" unicode="$" horiz-adv-x="435" 
d="M172 508q-2 55 -5 69q-6 4 -9 5q-3 -10 -5 -56q5 -6 19 -18zM142 -80q5 19 12 27l-21 -3q-3 -16 9 -24zM173 56l2 -1q12 -3 17 -5t11 -8q13 6 39 20q-10 5 -13 15.5t4 21.5q5 6 -17 8q-55 6 -110 -11q-51 -15 -74 18q-15 22 -1 36q3 3 8 5q19 6 28 -0.5t9 -16.5l-1 -10
q12 -4 43 1q14 2 25 10t15 15l5 6q10 -20 63 -23q18 -1 35.5 -12.5t23.5 -26.5q20 32 21.5 69.5t-24 80.5t-72.5 76q-1 0 -3 2q-5 -117 -7 -160q-1 1 -7.5 -0.5t-14 4.5t-7.5 19v162l-18 15q1 -55 3 -175q0 -15 -11 -19t-22 -1l-11 3q-1 134 0 227q-106 102 -32 190
q17 19 41 34q9 93 43 173q1 2 3 -2t6 -15t8 -27.5t8.5 -43.5t7.5 -59l36 2q16 -28 54.5 -36t69.5 -2l31 6q-1 -3 -3.5 -8.5t-13.5 -19.5t-25 -24.5t-39.5 -18t-56.5 -6.5q-22 1 -45 12q2 -46 2 -77q9 -7 26.5 -18t24.5 -16q52 -32 94 -75.5t57 -85.5q23 -57 4.5 -129.5
t-76.5 -124.5t-142 -74l9 -6q18 -17 12 -37q-8 -23 -46 -31q-28 -5 -44 15.5t-9 45.5q-70 -5 -141 8q-117 23 -158 135q-14 46 -5.5 91t30.5 72q80 100 207 96q-4 -1 -11.5 -2.5t-29 -9t-40 -18t-40 -30t-35.5 -43.5q-42 -71 -11 -133q26 -54 95 -79.5t151 -10.5
q-3 13 -3 28q-1 17 2 30q5 15 16 15q19 2 34 -3q25 -8 24 -29q0 -2 -3 -5q-4 -2 -6 -1q-6 2 -20 2z" />
    <glyph glyph-name="percent" unicode="%" horiz-adv-x="964" 
d="M211 431q0 15 -20 44q-18 -24 -20 -41v-2q11 -4 37 -1h3zM94 500l1 -2l1 -2q3 -15 15 -21q15 -6 27 -3q16 3 24 14q9 9 6 25q-3 13 -14 19q-14 7 -28 4q-16 -2 -25 -11q-8 -10 -7 -21v-2zM210 511q0 -1 0.5 -3.5t1.5 -3.5q8 -23 27 -30q29 -8 39 3q15 17 9 32
q-7 15 -28 23t-35 0q-11 -5 -14 -21zM608 -17q0 15 -20 44q-18 -24 -20 -41v-2q15 -3 37 -1h3zM491 52q2 -2 2 -4q3 -14 15 -20t28 -3q15 3 23 13q9 10 6 25q-3 14 -14 20t-28 4q-16 -3 -25 -12q-8 -8 -7 -20v-3zM608 63q0 -5 1 -7q8 -23 28 -30q27 -8 38 3q15 17 9 32
q-7 15 -28 23q-20 8 -35 1q-12 -7 -13 -22zM425 331q-76 -145 -183 -287q-74 -99 -169 -160t-174 -50q-39 6 -55.5 26.5t-10.5 41.5q3 11 12.5 20.5t17.5 13.5l8 4q-6 -63 50 -62q65 2 157 75q75 59 120 133q8 13 37 62t43 73q11 21 74.5 141t99.5 181q51 83 80 122
q78 100 174.5 158t175.5 41q39 -8 55.5 -31.5t10.5 -45.5q-4 -11 -13.5 -20.5t-17.5 -13.5l-8 -4q8 67 -52 71q-64 6 -152 -57q-85 -61 -129 -146q-136 -260 -151 -286zM305 151v-4l12 11q-1 -1 -11 -6zM191 710q92 -3 131 -66t0 -144q0 -1 -1 -2q-3 -7 0 -20q1 -8 2 -9
q1 -12 -3 -24q-6 -15 -22 -21q-7 -2 -23 -2h-1q-14 0 -16 -3q-7 -5 -3 -17l2 -8t1 -5q0 -13 -9 -20q-13 -12 -55 -12q-16 -1 -26 0q-18 2 -29 10q-12 7 -15 21q-1 5 2 18v1q1 6 0 7q-3 3 -16 4h-2q-5 1 -17 3q-12 3 -18 11q-7 8 -8 20q-1 3 -3 20q0 6 -1 8q-1 14 -3 22l-1 1
q-1 1 -1 4h-1q0 1 -0.5 2t-0.5 2q-26 73 4 127q35 61 126 72h3h4zM588 263q92 -3 131 -66.5t0 -144.5v-1q-3 -5 -1 -21q2 -8 2 -9q2 -12 -3 -24q-6 -15 -22 -20q-11 -3 -23 -3h-1q-14 0 -16 -2q-7 -6 -3 -17q3 -12 3 -14q0 -10 -8 -20q-13 -11 -56 -12q-18 0 -26 1
q-17 2 -29 9t-15 21q0 10 2 18v1q1 6 0 7q-3 3 -16 4q-1 1 -2 1q-7 0 -17 2q-10 3 -18 11q-7 8 -8 20q-2 10 -3 20q0 7 -1 9q-2 13 -3 21l-1 1v3l-1 1h-1q0 1 -0.5 2.5t-0.5 2.5q-27 72 4 127q37 62 126 71h3q1 1 4 1z" />
    <glyph glyph-name="ampersand" unicode="&#x26;" horiz-adv-x="1426" 
d="M264 326q-50 -51 -70 -111.5t-6.5 -112.5t54.5 -82q64 -48 136.5 -67t135.5 -10.5t112 39.5q-226 179 -362 344zM82 760q3 -1 8.5 -2.5t21.5 -4t31.5 -3.5t36 0.5t37 6.5t32 16.5t24.5 29.5h13.5t32.5 -4t46 -12t49 -26t47 -43q33 -43 38.5 -86t-16.5 -84t-54 -76.5
t-81 -75.5q50 -28 116 -86t107.5 -100.5t132.5 -139.5q36 84 -14 178q-17 32 -43 58.5t-51 41t-47.5 24.5t-36.5 13l-14 3q156 4 253 -130q27 -36 38 -97t-6 -124q-4 -12 -14 -36q8 -9 25 -26t25 -26q108 -110 268 -154q134 -37 209 -3q71 31 35 114q49 -5 70 -37
q9 -18 10 -39t-17 -46.5t-52 -43.5q-72 -38 -168 -30t-198 49.5t-197 108.5q-8 6 -32 23t-38 27q-50 -47 -120 -62q-47 -10 -99 -12t-113.5 6t-122.5 36.5t-109 75.5q-71 71 -94 168t6 175q26 77 113 159q-18 39 -18 66t10.5 35.5t22.5 5.5q4 -1 5 -8.5t5.5 -25.5t15.5 -37
q25 18 31 23q199 134 141 184q-8 6 -25.5 -5.5t-47 -28t-58.5 -17.5q-38 -2 -69.5 8t-49 25.5t-30 31.5t-17.5 27z" />
    <glyph glyph-name="quotesingle" unicode="'" horiz-adv-x="267" 
d="M69 498l82 140h101q-43 -83 -91 -125q-21 -19 -44 -22.5t-35 1.5z" />
    <glyph glyph-name="parenleft" unicode="(" horiz-adv-x="363" 
d="M258 -229q-6 28 6 43q14 17 38 9q23 -8 26 -29q2 -24 -30 -47q-32 -22 -59 6t-7 63q4 6 9 2q6 -4 2 -9q-4 -7 -5 -14q4 -21 20 -24zM147 -1q-46 102 -60.5 202.5t-1 178.5t42.5 146t68.5 113t79 71t72.5 28q1 0 -12.5 -13.5t-36 -43.5t-46.5 -71.5t-42 -103.5t-25 -133
t8 -167t53 -199q-2 1 -9.5 0t-21.5 7.5t-23 26.5q-20 41 -32.5 85t-16 81t-4 74t3.5 63.5t6.5 50t4 32.5t-2.5 12q-13 1 -22 -60t1.5 -161.5t49.5 -184.5q6 -13 -2.5 -21.5t-20.5 -10.5zM289 -135q14 -14 6 -27q-5 -8 -22 -13q-32 -7 -50 8q-1 0 -3 1q-18 26 -28 47
q-8 15 -10 28q-3 15 8 20q16 8 33 11q26 3 33 -17q1 -2 -1 -6q-1 -3 -5 -3q-10 -2 -17 -5l-3 -1l-1 -1q1 0 3 1h2q16 2 17 2q8 0 14 -3l2 -2h1q0 -1 1 -1l1 -2q1 -1 3 -5q5 -7 5 -13q2 -6 -4 -8h-1q-17 -5 -31 -6q6 -6 22 -4q1 1 2 1q12 1 18 0h2q1 0 3 -2zM112 -32
q14 -4 46 3q14 3 25.5 11.5t15.5 15.5l4 7q12 -19 68 -19q30 1 53 -21t8 -40q-21 -24 -44 -11q-18 11 -11 29q1 3 3 5q5 6 -17 7q-57 3 -115 -17q-53 -18 -79 13q-18 21 -4 36q3 3 8 5q21 7 29.5 1.5t9.5 -15.5v-10z" />
    <glyph glyph-name="parenright" unicode=")" horiz-adv-x="386" 
d="M179 726q5 -30 -7 -43q-15 -17 -38 -9t-25 30q-3 24 31 46q33 21 58.5 -7.5t5.5 -62.5q-4 -6 -9 -2q-6 2 -2 8q3 4 5 14v1q-3 21 -19 25zM284 494q64 -162 60 -296.5t-54 -231t-112 -150t-113 -55.5q-1 0 12.5 13t37 42t48.5 70t44.5 102.5t28 132.5t-3.5 167.5
t-48 200.5q4 1 10 0.5t20.5 -9.5t22.5 -27q26 -56 37.5 -118.5t9 -108t-6.5 -88.5t-9.5 -60t0.5 -23q13 -2 23.5 59t2 162t-44.5 186q-5 13 3.5 21t19.5 9zM145 632q-13 14 -5 27q6 9 23 12q30 7 50 -8l2 -2q16 -23 28 -47q7 -16 9 -29q2 -14 -9 -19q-18 -10 -33 -11
q-26 -2 -33 18q0 4 1 6q2 3 5 3q8 1 18 5l1 1h-2q-16 -2 -18 -2q-7 0 -13 4q-2 0 -2 1q-1 0 -1 1q-2 0 -2 2q0 1 -1 2.5t-2 2.5q-3 4 -5 14q-2 5 4 7q1 0 2 1q20 4 31 5q-7 5 -23 4h-2q-12 -1 -18 0h-1q-2 0 -4 2zM320 525q-14 3 -46 -3q-15 -2 -26.5 -10t-15.5 -15l-4 -7
q-11 19 -67 20q-30 1 -53 23.5t-7 40.5q22 24 45 8q19 -13 7 -32q0 -1 -1 -2q-4 -5 15 -7q53 -5 114 13q2 0 4 1q53 17 79 -15q17 -21 2 -35q-3 -3 -8 -5q-21 -6 -29 -0.5t-9 15.5v10z" />
    <glyph glyph-name="asterisk" unicode="*" horiz-adv-x="387" 
d="M254 547q5 -8 9 -18.5t5.5 -18t4 -18.5t3.5 -16q9 -41 6 -45q-2 -2 -7 -3t-8 1l-13 13q-4 3 -11 6.5t-12 7.5q-1 1 -3.5 5t-4.5 6q-2 3 -6 5l-4 3q-2 3 -13 25l-9 18q-3 -4 -7 -10q-4 -5 -9 -14.5t-7 -12.5q-2 -2 -10.5 -10t-10.5 -9q-7 -5 -24 -1t-22 12q-2 2 -1.5 13
t4.5 19q0 1 7 11q1 2 2.5 7t2.5 7q9 17 23 29q-24 3 -66 25q-31 17 -33 26q-1 3 2 7.5t6 5.5h16q4 0 10.5 3.5t11.5 4.5q2 1 7 0t6 -1q3 0 7 1.5t5 1.5q10 0 26 -4q18 -2 26 -3v10q0 6 -1 20t0 20q0 4 3.5 18t5.5 16q4 8 22 10.5t25 -2.5q9 -4 11 -29q0 -1 -0.5 -6t-0.5 -7
t1.5 -7.5t1.5 -7.5q2 -25 -3 -56q8 6 14 7q1 1 4.5 1.5t4.5 0.5l10 5q24 12 71 10q34 -2 40 -10q1 -2 0.5 -7.5t-2.5 -7.5q-1 -1 -4 -2t-5.5 -2.5t-3.5 -1.5q-3 -2 -7 -8t-8 -9q-1 -1 -5.5 -2.5t-5.5 -2.5q-2 -1 -4.5 -4t-3.5 -3l-24 -9q-24 -10 -34 -12h-2q-2 0 -5 0.5
t-6 0.5z" />
    <glyph glyph-name="plus" unicode="+" horiz-adv-x="631" 
d="M263 216q-68 -4 -100 -7q-27 -2 -43.5 -8.5t-22 -12t-14 -19.5t-13.5 -21q-6 -9 -17.5 -12.5t-26 5t-23.5 31.5q-5 23 -3 33t9.5 24t8.5 20q1 9 -8 30t-8 40q2 30 19.5 41t44.5 -4q13 -8 25 -24t25.5 -26.5t36.5 -11.5q56 -2 110 -2q0 79 -4 136q-2 24 -13.5 39.5t-24 22
t-21.5 20t-6 34.5q2 19 34 28t58 -7q15 -11 27.5 -8t21 11t25 8.5t39.5 -13.5q38 -24 2 -62q-4 -4 -21 -18.5t-25.5 -26.5t-10.5 -28q-7 -52 -7 -135q69 2 129 6q24 2 39.5 14t21.5 24.5t19.5 21.5t34.5 7q19 -2 29 -33.5t-6 -57.5q-11 -16 -8 -28.5t11 -20.5t9.5 -24.5
t-12.5 -39.5q-12 -19 -28.5 -19t-33.5 16q-6 5 -19.5 20.5t-26 24.5t-28.5 10q-58 7 -130 5q4 -75 5 -95q2 -27 8 -44t12 -22.5t19.5 -14t20.5 -14.5q9 -6 12 -17.5t-6 -26t-32 -22.5q-23 -5 -32.5 -3t-23.5 10t-20 9q-9 1 -30 -8t-40 -7q-30 2 -41 20.5t5 44.5q5 8 33 32
t30 54q4 48 5 101z" />
    <glyph glyph-name="comma" unicode="," horiz-adv-x="270" 
d="M-15 -110l122 160h148q-63 -95 -133 -142q-32 -21 -66 -25.5t-52 1.5z" />
    <glyph glyph-name="hyphen" unicode="-" horiz-adv-x="631" 
d="M153 294q165 -7 313 5q24 2 39.5 14t21.5 24.5t19.5 21.5t34.5 7q19 -2 29 -33.5t-6 -57.5q-11 -16 -8 -28.5t11 -20.5t9.5 -24.5t-12.5 -39.5q-12 -19 -28.5 -19t-33.5 16q-6 5 -19.5 20.5t-26 24.5t-28.5 10q-115 12 -305 -5q-27 -2 -43.5 -8.5t-22 -12t-14 -19.5
t-13.5 -21q-6 -9 -17.5 -12.5t-26 5t-23.5 31.5q-5 23 -3 33t9.5 24t8.5 20q1 9 -8 30t-8 40q2 30 19.5 41t44.5 -4q13 -8 25 -24t25.5 -26.5t36.5 -11.5z" />
    <glyph glyph-name="period" unicode="." horiz-adv-x="264" 
d="M158 -16q0 10 -14 30v1q-12 -17 -14 -29v-2q8 -3 26 0h2zM76 32q1 -1 1 -3q5 -21 30 -16q26 5 21 27q-3 20 -29 17q-25 -5 -23 -23v-2zM158 40q0 -1 0.5 -2.5t0.5 -2.5q5 -16 19 -21q20 -6 28 2q11 12 6 22q-4 10 -20 17q-14 5 -25 0q-7 -5 -9 -15zM144 180q64 -1 92 -46
t0 -102v-1q-2 -3 0 -14q1 -3 1 -7q1 -8 -2 -16q-5 -12 -16 -15q-8 -2 -16 -2q-11 0 -12 -2q-5 -3 -2 -11q2 -6 2 -10q0 -9 -6 -14q-7 -8 -39 -9q-13 0 -18 1q-13 2 -21 7q-9 5 -10 14q0 7 1 13v1q1 4 0 5q-2 2 -11 3h-1q-6 0 -12 2q-8 1 -13 7t-6 14q0 1 -2 15v6q-1 9 -3 15
v1q-1 1 -1 2q-1 1 -1 3q-19 52 3 90q23 42 88 50h2h3z" />
    <glyph glyph-name="slash" unicode="/" horiz-adv-x="341" 
d="M20 44q-11 -17 -2 -31q17 25 35 28q22 3 34 -19q13 -22 0 -40q-15 -20 -54 -14q-25 3 -35.5 23.5t-1 42.5t33.5 30q6 2 8 -4t-4 -8q-10 -4 -13 -7zM107 62q0 -19 -14 -24q-12 -3 -26 5q-28 16 -33 40v3q2 27 10 55q4 18 12 27q8 13 19 10q20 -5 32 -14q23 -16 14 -36
q-1 -3 -5 -3q-1 -1 -2.5 -1t-2.5 1l-1 1q-2 0 -2 1q-6 4 -18 8l1 -1l2 -1q7 -5 15 -11q6 -6 9 -12v-2q0 -1 1 -1q0 -3 -1 -4v-2q-3 -10 -3 -11l-3 -6q-3 -5 -8 -3q-1 0 -1 1q-16 8 -28 16l1 -3q1 -3 2 -4q1 -2 13 -12h1q9 -6 13 -12l1 -1q2 -2 2 -4zM21 235q11 -8 42 -13
q14 -3 27 1t20 9l6 5q0 -2 2 -6.5t15.5 -15.5t36.5 -20q27 -10 39.5 -39t-8.5 -41q-27 -15 -43 5q-13 18 2 33q2 1 4 3q6 4 -12 13q-48 22 -109 25h-2q-51 2 -64 39q-10 26 7 36q5 3 11 3q20 0 26.5 -9t2.5 -19zM71 267q73 224 117 337.5t69 157t66 89.5l2 -7
q8 -71 -48 -263q-45 -154 -124 -350q-1 0 -3 0.5t-6.5 2t-7 5t-4.5 9.5t2 15q20 63 57.5 172t52.5 158t10 56q-4 5 -16 -23q-17 -39 -117 -349l-2 -8q-4 -14 -16 -14.5t-22 5.5z" />
    <glyph glyph-name="zero" unicode="0" horiz-adv-x="703" 
d="M608 669q-4 -3 -10 -8.5t-26 -19t-40.5 -22.5t-49 -14.5t-55.5 -0.5q-34 7 -58 20q-24 3 -62 -17q-42 -23 -63.5 -93t-21.5 -155q0 -127 49 -194.5t109 -74.5h7q134 -7 204 171q27 80 25 144.5t-18 104.5l-17 41q4 -3 11 -9t24.5 -26t31.5 -43t26 -59t14 -75
q11 -185 -132 -307q-39 -34 -91 -48q-61 -21 -117 -10q-134 23 -203 130q-45 69 -63.5 149.5t-11.5 152.5t34 135q31 72 70.5 114t110.5 71q34 17 72.5 25.5t60.5 8.5h22q24 -43 66 -65.5t72 -24.5z" />
    <glyph glyph-name="one" unicode="1" horiz-adv-x="424" 
d="M107 39q2 -1 6 -1.5t14 0.5t18.5 5.5t16 17.5t9.5 34q11 110 14 242.5t-7 254.5v3q-5 41 -25 39q-23 -1 -43 -60q-13 -45 -7.5 -72t18.5 -38l13 -11q-61 -16 -89 68q-10 27 -15 70t-9.5 70t-15.5 32l22 32q72 -8 121 -9q17 0 87 1.5t98 0.5q29 -1 41 -2.5t21.5 -8
t11.5 -21.5q-3 1 -7 1.5t-15 -2t-20 -9t-17.5 -23.5t-11.5 -42q-8 -117 -4 -258.5t15 -250.5q4 -37 19.5 -53t29.5 -14l13 2q-11 -26 -29.5 -35t-51.5 -5q-54 9 -77.5 9.5t-81.5 -5.5q-46 -5 -62 38z" />
    <glyph glyph-name="two" unicode="2" horiz-adv-x="552" 
d="M55 703q7 -2 18.5 -4.5t43.5 -5.5t59 -0.5t55.5 16.5t42.5 39h15t37.5 -4t52.5 -12.5t56.5 -27t53.5 -45.5q24 -29 34.5 -58.5t8.5 -55.5t-16 -54t-33.5 -52t-48.5 -52t-57 -51t-63 -51q-6 -5 -9 -7q-100 -80 -122 -138q-18 -46 31 -45q45 0 75 -3q35 -1 57.5 0t48 11
t35.5 30q17 40 11.5 65t-21.5 36l-15 11q62 16 92 -63q10 -26 15.5 -65t10 -64.5t14.5 -29.5l-22 -30q-28 5 -54 7t-41.5 2t-46 -0.5t-48.5 -0.5q-27 0 -121 3t-136 3h-10q-27 1 -36 20q-12 18 -7 39q2 69 32 120q87 150 198 223q78 51 135.5 129t18.5 109q-9 7 -29 -5.5
t-54 -30t-67 -18.5q-43 -2 -79 8.5t-56.5 27t-34.5 33.5t-19 29z" />
    <glyph glyph-name="three" unicode="3" horiz-adv-x="590" 
d="M292 68q123 22 124 142q0 57 -16.5 95t-54.5 34q-28 -7 -58 -9q-54 -2 -87 24.5t-26 77.5q5 32 47 48q34 12 41 0q2 -2 1 -6q-11 -37 5.5 -55.5t46.5 -17.5q14 0 29 4q8 2 12 4q29 13 38 53t4 86q-7 64 -43.5 87.5t-90.5 27.5q-3 1 -8 1q-39 2 -60 -11t-36 -45
q-10 -22 -12.5 -46.5t0.5 -38.5l2 -14q-42 33 -51 70q-2 9 -5 21.5t-4.5 19.5t-4 16.5t-4 15t-4 12.5t-5 11t-5 8.5t-6 7t-7.5 4.5l21 32q51 -10 99 -10q2 0 7.5 0.5t8.5 0.5q117 9 178.5 6.5t114.5 -36.5q46 -30 63 -81.5t9.5 -97t-28.5 -74.5q-31 -44 -84 -64
q54 -18 99 -71q42 -46 32.5 -123.5t-70.5 -125.5q-26 -21 -56 -32t-73 -13t-75.5 -1t-96.5 6q-17 1 -26 2q-54 0 -100 -9l-21 31q4 2 7.5 4.5t6 6.5l5 8t5 11t4 12t4 14.5t4 16l4.5 19.5t5 21q10 38 52 68q-14 -49 9 -96q17 -35 43 -47.5t78 -5.5q3 1 9 1z" />
    <glyph glyph-name="four" unicode="4" horiz-adv-x="706" 
d="M84 355q-4 14 -2 37q-4 121 -19 213q-6 33 -22.5 53.5t-30.5 24.5l-13 4q7 19 21 26.5t44 3.5q76 -10 157 -1q36 5 53 -2.5t19 -29.5q-2 1 -6.5 1.5t-15 -2t-19.5 -9t-17.5 -23t-11.5 -41.5q-11 -105 -1 -218q12 -25 49.5 -30.5t66 15t16.5 59.5q-3 10 11 11q28 4 59 -18
q22 -15 25 -35q8 -54 -26 -86t-98 -33q-55 -2 -113.5 11t-100.5 39q-21 10 -25 30zM390 38q2 -1 6 -1.5t14 0.5t18.5 5.5t16 17.5t9.5 34q11 112 14 253t-8 260q-4 34 -20.5 54.5t-31.5 24.5l-14 4q7 19 21 26.5t44 3.5q76 -10 157 -1q37 5 53.5 -2.5t19.5 -29.5
q-3 1 -7 1.5t-15 -2t-20 -8.5t-17.5 -23.5t-10.5 -42.5q-9 -116 -5 -259.5t15 -251.5q4 -37 19.5 -53.5t29.5 -14.5l13 2q-10 -25 -29 -34.5t-52 -4.5q-53 8 -76 9t-82 -5q-45 -5 -62 38z" />
    <glyph glyph-name="five" unicode="5" horiz-adv-x="567" 
d="M264 4q-18 0 -43.5 0.5t-40.5 0.5t-38 -2t-48 -7l-19 28q9 5 13.5 29.5t9 62.5t13.5 63q26 75 82 61q-2 -1 -6 -3.5t-12 -12t-12.5 -21t-3.5 -31t11 -41.5q7 -15 21 -24.5t34.5 -12.5t35.5 -3.5t40 0.5t33 1h31q1 2 2 7t1 7q14 86 12 166h-8q-132 -2 -223 43
q-34 10 -37 37q-4 16 -1 30q-6 134 -6 216q0 12 3 24q0 12 19 31q37 38 89.5 59.5t86.5 23.5l34 3q22 -39 75.5 -50t96.5 -3l43 9q-2 -5 -5.5 -12.5t-18 -26.5t-34 -33.5t-55 -25.5t-77.5 -9q-11 0 -23 3t-20 5.5t-19.5 8t-16.5 8t-16.5 9.5t-13.5 8q-6 -13 -9 -37
q-11 -102 -2 -202q10 -28 59.5 -34.5t80.5 13.5q9 9 15 13q14 18 6 43q-3 8 10 11q29 5 64 -16q26 -15 29 -35q0 -2 0.5 -5t0.5 -4v-3q2 -8 0 -15q-3 -204 -5 -263q-2 -52 -44 -74t-92 -18h-5h-97z" />
    <glyph glyph-name="six" unicode="6" horiz-adv-x="654" 
d="M640 690q-2 -5 -6 -12.5t-21 -27t-38 -33t-59 -23t-82 -5.5q-26 3 -53 16q-4 2 -18.5 9.5t-20.5 8.5t-21.5 -1t-35.5 -12q-41 -19 -65.5 -84t-28.5 -146q-7 -126 40.5 -193t105.5 -70q3 -1 10 -1q78 3 114 44l1 1q21 31 26 58q0 2 0.5 6t0.5 5q3 48 -43 83
q-24 19 -58.5 23t-67 -3.5t-61 -17.5t-45.5 -19l-18 -10q43 55 83 79.5t91 28.5q92 7 165 -59q31 -29 41.5 -74.5t-2.5 -96.5q-7 -39 -47 -80.5t-107 -64.5t-135 -6q-2 0 -3 1q-52 14 -101.5 48.5t-75.5 80.5q-59 103 -59 213.5t44 201.5q46 101 152 152q36 21 80 30.5
t70 8.5l26 -1q8 -19 28 -34l9 -6q31 -19 77 -23.5t77 0.5z" />
    <glyph glyph-name="seven" unicode="7" horiz-adv-x="652" 
d="M133 93q72 123 149.5 269t103.5 217q10 24 13 43q-27 1 -88 5q-5 0 -26.5 1t-28.5 1t-24.5 -1t-25.5 -5t-19.5 -10t-18.5 -16.5t-12 -24.5q-12 -45 -6.5 -72.5t18.5 -38.5l13 -11q-60 -16 -90 69q-10 27 -15 70t-9.5 70t-14.5 32l21 32q35 -6 61 -8t67.5 -1.5t57.5 0.5h7
q13 0 84 1t106 2h2q20 1 56 1q4 0 13 0.5t13 0.5q23 2 50 3q19 2 33 -13.5t14 -33.5q-4 -2 -12 -7t-29 -29t-39 -57q-42 -77 -91 -175.5t-100.5 -207t-64.5 -135.5q-7 -24 7.5 -31.5t32.5 -2.5l18 4q-5 -13 -7 -16.5t-8.5 -11.5t-16 -10t-23.5 -1q-77 7 -213 0
q-38 -3 -45 38q1 1 4.5 0t12.5 2t19 8t24 18.5t27 31.5z" />
    <glyph glyph-name="eight" unicode="8" horiz-adv-x="552" 
d="M255 316q-43 -37 -65 -80t-21 -79t21 -60q49 -35 143 -27q61 6 64 56q4 61 -73 135q-26 26 -60 49zM488 627q33 -87 -96 -203q107 -86 133 -166q50 -159 -86 -229q-53 -29 -111 -35.5t-105.5 4t-89.5 33.5q-56 26 -85 74q-15 22 -20 43q-19 62 2 108q35 76 138 126
q-56 46 -85.5 88t-30.5 92.5t40 98.5q33 39 83.5 59.5t84.5 21.5l33 1q20 -37 71.5 -47t92.5 -2l41 8q-2 -4 -5 -11.5t-17.5 -25.5t-33 -32t-52.5 -24.5t-74 -8.5q-31 1 -62.5 17.5t-50.5 27.5t-27 5q-13 -10 -13.5 -23.5t10 -29t26 -32t38 -34t44 -32t45.5 -29.5q1 0 1 -1
q40 31 80.5 70.5t60.5 63.5z" />
    <glyph glyph-name="nine" unicode="9" horiz-adv-x="646" 
d="M58 18q2 5 5.5 13t19 28.5t35.5 35.5t57 27t82 10q26 0 55 -11q5 -2 19.5 -8.5t21 -7.5t21.5 2.5t35 14.5q39 22 59 89t19 148q-1 66 -17.5 118t-42 80t-52.5 42t-52 14h-11q-78 -8 -111 -52l-1 -1q-19 -34 -22 -60v-11q0 -48 48 -81q26 -17 61 -18.5t66.5 8t60 22
t44.5 22.5l17 11q-39 -59 -77.5 -86t-89.5 -34q-93 -14 -169 48q-33 26 -47 71t-4 97q4 40 41.5 84.5t103 72.5t134.5 15q1 0 2 -0.5t2 -0.5q53 -10 105 -41.5t81 -75.5q44 -67 62 -144.5t12 -144t-30 -127.5q-41 -103 -143 -162q-35 -24 -78.5 -36.5t-69.5 -13.5l-25 -1
q-11 20 -31 32q-6 4 -10 6q-32 16 -78.5 17.5t-77.5 -5.5z" />
    <glyph glyph-name="colon" unicode=":" horiz-adv-x="266" 
d="M161 375q0 11 -14 31q-14 -18 -15 -29v-1q8 -2 26 -1h3zM79 424q0 -2 1 -3q1 -10 10 -14.5t20 -2.5t16.5 9.5t3.5 17.5q-3 20 -29 17q-25 -3 -23 -23zM160 431q1 -1 1 -5q7 -17 20 -21q20 -4 27 3q11 11 6 22t-19 16q-16 6 -25 0q-9 -3 -10 -15zM158 -16q0 10 -14 30v1
q-12 -17 -14 -29v-2q8 -3 26 0h2zM76 32q1 -1 1 -3q5 -21 30 -16q26 5 21 27q-3 20 -29 17q-25 -5 -23 -23v-2zM158 40q0 -1 0.5 -2.5t0.5 -2.5q5 -16 19 -21q20 -6 28 2q11 12 6 22q-4 10 -20 17q-14 5 -25 0q-7 -5 -9 -15zM147 572q64 -2 91.5 -46.5t0.5 -102.5h-1
q-1 -5 0 -15q1 -3 1 -6q2 -10 -2 -17q-5 -11 -15 -14q-5 -2 -16 -2h-1q-8 0 -12 -2q-3 -3 -1 -12q0 -2 1 -5q0 -3 1 -5q0 -9 -6 -13q-10 -9 -39 -9h-19q-12 1 -20 7t-10 15q-1 6 1 12v1v5q-1 1 -11 3h-2q-2 0 -6 0.5t-6 1.5q-7 1 -12 8q-4 4 -6 14l-2 14q0 4 -1 6q0 9 -2 15
l-1 1q0 2 -1 2v1q0 1 -1 3q-19 50 3 89q25 43 88 51h3h3zM144 180q64 -1 92 -46t0 -102v-1q-2 -3 0 -14q1 -3 1 -7q1 -8 -2 -16q-5 -12 -16 -15q-8 -2 -16 -2q-11 0 -12 -2q-5 -3 -2 -11q2 -6 2 -10q0 -9 -6 -14q-7 -8 -39 -9q-13 0 -18 1q-13 2 -21 7q-9 5 -10 14q0 7 1 13
v1q1 4 0 5q-2 2 -11 3h-1q-6 0 -12 2q-8 1 -13 7t-6 14q0 1 -2 15v6q-1 9 -3 15v1q-1 1 -1 2q-1 1 -1 3q-19 52 3 90q23 42 88 50h2h3z" />
    <glyph glyph-name="semicolon" unicode=";" horiz-adv-x="263" 
d="M157 362q1 8 -13 30h-1q-13 -19 -14 -28v-2q8 -2 26 -1zM75 410q1 -1 1 -3q5 -21 30 -16q26 5 21 27q-4 21 -29 16q-11 -1 -17.5 -7.5t-5.5 -14.5v-2zM157 418q0 -1 1 -3v-2q5 -18 19 -21q20 -6 28 2q10 12 6 22q-5 11 -20 16q-14 6 -24 1q-8 -4 -10 -15zM143 558
q65 -2 92.5 -46.5t0.5 -101.5l-1 -1q-1 -5 0 -14q1 -4 1 -7q1 -8 -2 -16q-4 -12 -15 -15q-5 -2 -17 -2q-10 0 -12 -2q-4 -4 -2 -12q2 -5 2 -9q1 -8 -5 -14q-9 -8 -39 -9q-13 0 -19 1q-11 1 -20 6q-10 7 -10 15q-1 5 0 13q1 5 1 6q-4 2 -12 2q0 1 -1 1q-3 0 -6.5 0.5
t-5.5 0.5q-8 3 -13 8q-2 3 -6 14q0 2 -0.5 6t-0.5 8q-1 4 -1 6q0 3 -0.5 6t-1 5.5t-0.5 3.5l-1 1l-1 1v2q-1 1 -1 3q-18 51 3 89q25 43 88 51h2h3zM-29 -110l121 159h149q-64 -95 -134 -142q-31 -21 -65 -25.5t-52 2.5z" />
    <glyph glyph-name="less" unicode="&#x3c;" horiz-adv-x="630" 
d="M179 291q140 -72 289 -121q23 -8 42.5 -2t30 16t27.5 14t35 -7q16 -8 11 -46t-30 -55q-17 -12 -20 -25.5t1 -25t-2.5 -29t-28.5 -34.5q-20 -14 -35 -7.5t-24 29.5q-3 6 -8.5 28.5t-13 36t-21.5 21.5q-90 52 -281 117q-26 9 -44 9t-25.5 -3.5t-21 -14t-21.5 -15.5
q-9 -4 -21.5 -4.5t-21.5 14t-7 41.5q1 20 10 33t20.5 22.5t15.5 15.5q2 3 4 9q0 5 -1 8q-3 8 -20 23.5t-24 32.5q-11 28 0.5 46.5t41.5 14.5q10 -1 43.5 -15.5t61.5 -3.5q147 59 282 137q21 12 30 29.5t9 31.5t8.5 27.5t28.5 20.5q18 6 41 -19.5t18 -53.5q-3 -18 5 -28.5
t19 -14.5t19 -19t5 -41q-4 -43 -55 -29q-7 2 -21 8.5t-22 9t-23 5t-24 -2.5q-103 -36 -275 -134q-21 -12 -35 -24q8 -16 28 -26z" />
    <glyph glyph-name="equal" unicode="=" horiz-adv-x="753" 
d="M160 407q155 -9 313 4q24 2 39.5 14t21.5 24.5t19.5 21.5t34.5 7q19 -2 29 -33.5t-6 -57.5q-10 -15 -7.5 -27.5t10.5 -21t9.5 -25t-12.5 -39.5q-12 -19 -28.5 -18.5t-33.5 15.5q-5 5 -19.5 21t-26.5 24.5t-28 10.5q-102 10 -305 -5q-27 -2 -43.5 -8.5t-22 -12.5t-14 -20
t-13.5 -21q-4 -6 -12 -9.5t-17.5 -3t-19.5 10t-17 27.5q-6 22 -4 32t9.5 24t8.5 20q1 9 -8 30t-8 40q2 30 19.5 41t44.5 -4q13 -8 25.5 -24t25.5 -26t36 -11zM275 185q165 -7 313 5q24 2 39.5 14t21.5 24.5t19.5 21.5t34.5 7q19 -2 29 -33.5t-6 -57.5q-11 -16 -8 -28.5
t11 -20.5t9.5 -24.5t-12.5 -39.5q-12 -19 -28.5 -19t-33.5 16q-6 5 -19.5 20.5t-26 24.5t-28.5 10q-102 10 -305 -5q-27 -2 -43.5 -8.5t-22 -12t-14 -19.5t-13.5 -21q-6 -9 -17.5 -12.5t-26 5t-23.5 31.5q-5 23 -3 32.5t9.5 23.5t8.5 21q1 9 -8 30t-8 40q2 30 19.5 41
t43.5 -4q13 -8 25.5 -24t26 -26.5t36.5 -11.5z" />
    <glyph glyph-name="greater" unicode="&#x3e;" horiz-adv-x="635" 
d="M148 148q152 62 282 137q20 12 30 30q-8 15 -22 22q-88 51 -281 117q-26 9 -44 9t-25.5 -3.5t-21.5 -14.5t-22 -16q-17 -10 -35 1.5t-15 50.5q2 20 10.5 32.5t20.5 22t16 15.5q5 9 6 33.5t10 42.5q15 29 36.5 33.5t38.5 -21.5q8 -14 12.5 -35t12 -36t28.5 -25
q142 -73 288 -120q23 -8 42.5 -2.5t30.5 15.5t28 14t34 -7q17 -8 12 -45t-31 -55q-17 -11 -19.5 -25t1.5 -26q4 -5 17.5 -13t20 -21t4.5 -39q-2 -22 -18.5 -29.5t-36.5 0.5q-8 2 -21.5 8t-22 9t-23 5t-24.5 -3q-95 -33 -274 -133q-23 -14 -35.5 -26.5t-15 -20t-4 -24
t-3.5 -24.5q-4 -19 -22.5 -24.5t-48.5 18.5q-13 13 -17 28t-1.5 25t-0.5 22q-3 9 -20 24t-24 33q-11 27 0.5 45.5t41.5 14.5q10 -1 43.5 -15.5t61.5 -3.5z" />
    <glyph glyph-name="question" unicode="?" horiz-adv-x="644" 
d="M308 -69q0 10 -14 30v1q-12 -17 -14 -29v-1q10 -3 26 -1h2zM226 -21q1 -1 1 -3q5 -21 30 -16q26 5 21 27q-3 20 -29 17q-25 -5 -23 -23v-2zM308 -13q0 -1 0.5 -2.5t0.5 -2.5q5 -16 19 -21q20 -6 28 2q11 12 6 22q-4 10 -20 17q-14 5 -25 0q-8 -5 -9 -15zM259 173
q-12 29 -13.5 53.5t7.5 45t23 37t38 32t47.5 27.5t55.5 25q42 18 71 47.5t40.5 62t8 65t-23.5 57.5q-50 63 -117 92t-124.5 19t-90.5 -53q-39 -53 -20 -132q11 -43 39 -77.5t50 -47.5l23 -14q-109 27 -157 144q-13 27 -10.5 78t24.5 87q61 99 166 92q35 -3 71.5 -12
t78.5 -27t80.5 -50.5t64.5 -76.5q38 -65 38.5 -140t-32.5 -124q-23 -37 -69 -69t-97 -50q-14 -5 -41.5 -13.5t-45.5 -14.5t-38.5 -15.5t-32 -21t-14.5 -26.5zM294 127q64 -1 92 -46t1 -102l-1 -1q-1 -5 0 -14q1 -3 1 -6q1 -9 -2 -17q-4 -10 -16 -15q-8 -2 -16 -2
q-11 0 -12 -1q-5 -5 -2 -12q2 -6 2 -10q0 -9 -6 -14q-7 -7 -38 -9q-14 0 -19 1q-13 2 -21 7q-9 5 -10 14q0 7 1 13v1q1 4 0 5q-2 2 -11 3h-1q-6 0 -12 2q-8 2 -13 7q-5 6 -6 14q0 2 -0.5 6.5t-0.5 8.5q-1 3 -1 6q-1 9 -3 15v1q-1 1 -1 2q-1 1 -1 3q-19 52 3 90q23 42 88 50
h2h3z" />
    <glyph glyph-name="at" unicode="@" horiz-adv-x="846" 
d="M584 341q-16 46 -50 128q-4 10 -7 12.5t-6.5 -2t-10.5 -18.5v-1q-6 -14 -25.5 -58t-29.5 -69q68 -9 129 8zM588 196q5 -1 13 -2t18 6.5t4 25.5q-1 3 -4.5 14.5t-5.5 17.5q-97 -37 -197 -23q-2 -16 9.5 -24.5t23.5 -9.5l12 -1q-12 -30 -38 -27q-66 8 -98 4q-24 -1 -24 22
q4 -1 11.5 -0.5t24 9.5t27.5 29q53 97 113 255v2q8 32 -2 49.5t-24 18.5l-14 2q7 18 31 26.5t50 3.5q22 -4 39 -15.5t29 -30.5t19 -33.5t15 -37.5t11 -29q15 -34 31 -76q57 33 88 79t21.5 92t-65.5 73q3 3 8 6.5t21 10t29 -0.5q27 -9 48.5 -43.5t18.5 -85.5
q-4 -54 -41.5 -109t-98.5 -96q9 -25 27 -68q8 -19 18 -27.5t16 -7.5l6 1q-11 -29 -50 -23q-41 6 -87 0q-23 -3 -33 23zM615 52q67 9 195 43q-58 -56 -141 -80q-46 -14 -101.5 -18.5t-124 7t-120.5 43.5q-178 108 -185 305q-4 75 41 167q40 80 107.5 138t145.5 76
q84 15 140 5t78 -35q12 -15 11 -28t-8 -23l-7 -9q-71 41 -142 42t-126 -29t-97.5 -82.5t-62 -114t-13.5 -128t42 -120.5q31 -46 70.5 -79t78 -49t79.5 -26t75.5 -8.5t64.5 3.5z" />
    <glyph glyph-name="A" unicode="A" horiz-adv-x="917" 
d="M569 353q-35 93 -67 167q-8 18 -12.5 22t-11 -3.5t-18.5 -32.5l-1 -2l-39 -91q76 -21 149 -60zM598 33q2 0 5 -0.5t11.5 -1.5t15.5 0t16 3.5t12.5 9.5t6 17t-3.5 26q-3 11 -14.5 44.5t-17.5 53.5q-115 91 -250 132q-62 -139 -80 -184q-11 -28 -7.5 -46t16.5 -27.5t27 -14
t25 -5.5h12q-22 -53 -68 -47q-117 13 -175 7q-19 -2 -31 10t-12 29q3 0 8 -0.5t19.5 2t28 8.5t29.5 20.5t28 36.5q58 107 110 228q-85 16 -147 2.5t-87.5 -55.5t2.5 -115q-7 1 -17.5 3t-33.5 15t-35 32q-11 24 -12.5 53t20.5 63.5t64 59.5q115 67 286 37q22 54 51 133
q1 1 1 3q9 38 5 62.5t-16.5 37t-26 18t-23.5 5.5l-11 1q14 32 56 48t88 7q32 -6 60 -23.5t46 -38.5t34.5 -51t25.5 -52.5t20 -52.5t17 -43q36 -85 82 -206t73 -184q14 -33 32 -47.5t29 -13.5l11 2q-23 -51 -91 -42q-68 11 -154 1q-43 -6 -60 40z" />
    <glyph glyph-name="B" unicode="B" horiz-adv-x="696" 
d="M244 200q11 -68 44.5 -103.5t84.5 -31.5q28 2 49 7.5t45 19t37 40.5t13 67q1 54 -18 96.5t-50 47.5q-16 3 -32 8q-46 12 -70 42.5t-12 70.5q0 2 4 -2.5t12 -13t18.5 -17t28 -13t37.5 -1.5q29 5 47 42t18 85q0 35 -13 59t-35.5 36t-42.5 16.5t-47 6.5q-53 4 -86.5 -35
t-39.5 -111v-4q-4 -143 8 -312zM11 38q2 -1 6 -1.5t14.5 0.5t18.5 5.5t16 18t10 34.5q11 114 13.5 252t-8.5 260q-4 33 -20.5 53.5t-30.5 24.5l-15 4q7 19 21 27t44 4q58 -8 190 1q4 0 6 1h20q109 9 173 4t117 -39q47 -31 64.5 -83.5t10 -98.5t-29.5 -76q-34 -45 -83 -66
q54 -19 98 -72q44 -48 33.5 -126.5t-71.5 -127.5q-24 -19 -49 -29.5t-66.5 -13.5t-63.5 -3.5t-89.5 3.5t-94.5 5h-3q-14 0 -40.5 1t-42 1.5t-39.5 -0.5t-47 -4q-45 -5 -62 41z" />
    <glyph glyph-name="C" unicode="C" horiz-adv-x="625" 
d="M610 711q-2 -5 -6 -13.5t-20 -30t-37.5 -37t-60.5 -27.5t-86 -10q-29 1 -57 13q-6 2 -17 7.5t-17 7t-16 2t-22.5 -3.5t-29.5 -13q-41 -23 -63 -93t-22 -155q0 -133 54 -200.5t115 -67.5h11q51 5 84 24.5t44 44.5t14 49t0 40l-4 17q9 -2 23.5 -7t40.5 -27.5t32 -54.5
q6 -31 -13 -69.5t-54.5 -70.5t-89.5 -51t-110 -13q-10 0 -22 3q-133 23 -202 129q-45 69 -63 149.5t-11 152t34 134.5q31 71 70.5 113t109.5 71q34 17 72.5 25.5t60.5 8.5l21 1q10 -19 33 -35l5 -2.5t4 -2.5q33 -18 81.5 -20t81.5 5z" />
    <glyph glyph-name="D" unicode="D" horiz-adv-x="692" 
d="M15 40q2 -1 6 -1.5t14.5 0t19 5.5t16 18.5t9.5 34.5q11 113 14 254t-8 262q-4 34 -20.5 54.5t-31.5 24.5l-14 4q7 19 21 26.5t44 3.5q73 -8 194 0q16 1 32 1q65 0 103 1q55 0 118.5 -34t90.5 -82q37 -67 48.5 -152t2.5 -156t-31 -130q-35 -94 -87.5 -134t-135.5 -42
q-77 -2 -127 0q-14 0 -25 1q-105 9 -190 -1q-44 -5 -63 42zM242 487q0 -14 -1 -17q-2 -180 15 -347v-4q1 -5 1 -13q4 -19 33 -29.5t106 -12.5q40 -1 66.5 26t38 76.5t15 98.5t2.5 111q-3 139 -40 213.5t-99 76.5q-32 1 -51.5 -2t-41 -15.5t-32 -43.5t-12.5 -81q0 -3 -0.5 -9
t-0.5 -9q0 -13 1 -19z" />
    <glyph glyph-name="E" unicode="E" horiz-adv-x="625" 
d="M610 711q-2 -5 -6 -13.5t-20 -30t-37.5 -37t-60.5 -27.5t-86 -10q-29 1 -57 13q-6 2 -17 7.5t-17 7t-16 2t-22.5 -3.5t-29.5 -13q-53 -29 -73 -132q11 -32 34 -54q29 -26 69.5 -34t66.5 11t13 63q-3 10 11 11q29 4 60 -18q21 -15 24 -36q9 -52 -27 -79t-95 -25
q-70 2 -168 44q0 -132 54 -199.5t115 -67.5h11q51 5 84 24.5t44 44.5t14 49t0 40l-4 17q9 -2 23.5 -7t40.5 -27.5t32 -54.5q6 -31 -13 -69.5t-54.5 -70.5t-89.5 -51t-110 -13q-10 0 -22 3q-133 23 -202 129q-45 69 -63 149.5t-11 152t34 134.5q31 71 70.5 113t109.5 71
q34 17 72.5 25.5t60.5 8.5l21 1q10 -19 33 -35l5 -2.5t4 -2.5q33 -18 81.5 -20t81.5 5z" />
    <glyph glyph-name="F" unicode="F" horiz-adv-x="681" 
d="M17 33q34 -8 62 12.5t39 91.5q19 126 19 373q-2 59 -5 85q-19 101 -91 84q0 2 0.5 5.5t5 11.5t12 13.5t22.5 9t35 1.5q48 -6 269 -3l201 10q-16 -38 11 -106q5 -12 14 -23t18.5 -18.5t18.5 -13.5t14 -10t4 -6q-2 -7 -13 -10.5t-21 -3.5l-9 -1q-6 1 -17 3.5t-40 18.5
t-53 41q-38 41 -97 52t-91 -20q-39 -39 -36.5 -109.5t44.5 -107.5q29 -26 69.5 -34t66.5 11t13 63q-3 10 11 11q29 4 60 -18q21 -16 24 -36q9 -53 -27 -80t-95 -25q-32 1 -74 12.5t-68 22.5l-26 10l-1 -72q3 -83 9 -143q3 -13 3 -24v-2q5 -40 24.5 -57.5t36.5 -15.5l17 2
q-21 -48 -94 -38q-82 12 -141 6q-9 -1 -57 -7q-33 -2 -49.5 6.5t-16.5 18.5z" />
    <glyph glyph-name="G" unicode="G" horiz-adv-x="645" 
d="M631 706q-2 -5 -6 -13.5t-20.5 -30t-38.5 -37.5t-61.5 -28t-86.5 -10q-28 1 -58 13q-6 2 -17 7.5t-16.5 7t-16 2.5t-23 -3.5t-29.5 -13.5q-42 -23 -64 -93.5t-22 -156.5q0 -134 54.5 -202.5t116.5 -68.5h11q120 11 141 102q10 87 -46 118q-41 20 -68 19.5t-40 -10.5
l-13 -11q-2 27 16 46.5t66 27.5q28 4 72.5 2t64.5 -3.5t36 8.5l27 -26q-16 -42 -16.5 -119.5t-1.5 -85.5q-2 -31 -27 -67t-64 -66t-95 -45t-112 -4q-1 1 -4 1q-2 0 -2 1q-19 3 -34 10q-97 34 -160 116q-50 66 -68 148t-9 155t37 138q48 111 152 169q37 25 83.5 38t74.5 13
l27 1q11 -21 32 -34q2 -1 5.5 -3.5t5.5 -3.5q33 -18 82.5 -20t81.5 5z" />
    <glyph glyph-name="H" unicode="H" horiz-adv-x="894" 
d="M423 32q2 -1 6 -1.5t14.5 0t19 5.5t16 18.5t9.5 34.5q9 91 14 234q-132 -36 -249 -112q5 -70 9 -114q4 -37 20 -53.5t30 -13.5l13 2q-21 -50 -82 -40q-54 8 -77.5 9t-83.5 -5q-46 -5 -62 38q2 -1 6 -1.5t14.5 0.5t18.5 5.5t16 18t10 34.5q11 115 13.5 254t-8.5 263
q-4 34 -20.5 54.5t-31.5 24.5l-14 4q7 19 21 27t45 4q78 -10 159 -1q37 5 54 -2.5t20 -29.5q-3 1 -7 1.5t-15.5 -2t-20.5 -9t-17.5 -24t-11.5 -42.5q-9 -110 -4 -275q126 76 256 98q0 102 -9 174q-4 34 -20.5 55t-31.5 25l-14 4q7 20 21 27.5t44 3.5q78 -10 160 -1
q37 5 54 -2.5t20 -29.5q-3 1 -7 1.5t-15.5 -2t-20.5 -9.5t-17.5 -24t-11.5 -43q-6 -71 -6 -171q82 -8 144 -43q43 -25 65.5 -59.5t21 -63.5t-13.5 -53q-12 -19 -33.5 -31.5t-37.5 -15.5l-16 -3q32 80 -5 123t-123 45q4 -135 15 -247q4 -38 20 -54.5t30 -14.5l13 2
q-11 -26 -30 -35.5t-52 -4.5q-55 9 -78.5 9.5t-82.5 -5.5q-46 -5 -63 39z" />
    <glyph glyph-name="I" unicode="I" horiz-adv-x="355" 
d="M36 37q2 -1 6 -1.5t14.5 0t19 5t16 18t9.5 34.5q11 113 14 254t-8 261q-4 34 -20.5 54.5t-30.5 24.5l-15 4q7 19 21 26.5t44 3.5q87 -9 159 0q37 5 54 -3t19 -30q-3 1 -7 1.5t-15 -2t-20 -8.5t-17.5 -23.5t-11.5 -42.5q-8 -119 -4 -261t15 -252q4 -37 20 -53.5t30 -14.5
l13 2q-21 -49 -82 -39q-53 7 -80.5 7t-85.5 -7q-22 -2 -34.5 7.5t-22.5 34.5z" />
    <glyph glyph-name="J" unicode="J" horiz-adv-x="655" 
d="M36 689q7 -2 19.5 -4.5t46.5 -6t62.5 -0.5t58.5 18t45 43q59 2 123 -24q152 -55 211 -197q27 -66 36 -139.5t-9 -156.5t-67 -149q-35 -47 -88 -82t-105 -46q-85 -17 -162 23q-45 25 -60 41q-33 28 -52.5 61t-21.5 60q-2 13 -2 91t-16 120l26 26q6 -9 35 -8.5t63.5 3.5
t71.5 -2q84 -14 80 -75l-5 5t-13.5 8.5t-23.5 7.5t-33.5 -2t-43.5 -17q-52 -30 -45 -112q16 -111 162 -115q27 3 53 19.5t50 47.5t38.5 84.5t14.5 121.5q0 83 -22 152.5t-62 99.5q-28 21 -36.5 25t-14.5 1q-62 -39 -108 -41t-84 9.5t-59.5 29t-36.5 36t-20 31.5z" />
    <glyph glyph-name="K" unicode="K" horiz-adv-x="1638" 
d="M470 600q22 28 14.5 47t-28.5 29l-20 9q7 19 21 27t45 4q69 -9 191 3q20 2 31.5 -8.5t11.5 -28.5q-8 -1 -21 -4.5t-49 -23t-65 -48.5q-67 -64 -152 -139.5t-119 -108.5q20 -59 82 -88q55 -25 127 -84.5t123.5 -112t151.5 -158.5t150 -156q117 -119 291 -169
q145 -43 232 -10q83 31 52 116q-2 7 -5 14q54 -5 78 -40q10 -20 11 -43.5t-18.5 -52t-57.5 -48.5q-80 -42 -187 -33t-221 55t-220 121q-182 128 -356.5 289t-265.5 314q-23 40 -55 74q3 -143 15 -252q4 -37 19.5 -53.5t29.5 -14.5l14 2q-21 -50 -82 -40q-54 7 -79 7t-83 -7
q-44 -4 -63 42q2 -1 6 -1.5t14.5 0.5t19 5.5t16 18t9.5 34.5q11 114 14 256.5t-8 263.5q-4 34 -20.5 54.5t-31.5 24.5l-15 4q7 20 21 27.5t45 3.5q70 -9 191 3q21 2 32.5 -8t11.5 -28q-3 1 -7 1.5t-15.5 -2t-20.5 -9t-17.5 -24t-11.5 -42.5q-8 -85 -6 -205q6 5 46.5 36
t64.5 49.5t59.5 50t59.5 57.5z" />
    <glyph glyph-name="L" unicode="L" horiz-adv-x="645" 
d="M16 30q33 -8 61.5 13t39.5 92q19 132 16 394q0 77 -24.5 120t-73.5 32q0 2 0.5 5.5t5 11.5t11.5 13.5t22.5 9.5t35.5 1q108 -12 250 4q32 3 50 -8.5t20 -25.5l1 -13q-30 1 -62 -14.5t-50 -34.5q-23 -23 -31.5 -92.5t-5.5 -127.5l3 -58q-9 -130 16 -203q9 -27 34 -47
t55 -26.5t63 6.5t55 46q42 62 70.5 90.5t52.5 20.5q-29 -50 -35 -123l-9 -121q-116 6 -233 7q-209 0 -270 -5q-33 -3 -50 5t-18 18v10z" />
    <glyph glyph-name="M" unicode="M" horiz-adv-x="886" 
d="M598 34q1 1 9 0t21 3t25 9.5t21 20.5t10 36q3 117 -4 443q-4 -9 -16 -39t-20 -48q-42 -98 -95.5 -204.5t-62.5 -132.5q-4 -12 -24 -16.5t-38 -3.5l-17 2q-10 0 -18 7q-11 5 -14 13q-9 27 -62 133t-94 204q-25 60 -37 90q-1 -120 2 -446q0 -34 21.5 -51.5t42.5 -17.5h21
q-10 -26 -26.5 -35.5t-45.5 -4.5q-51 8 -69.5 9t-72.5 -5q-45 -5 -59 35q1 1 9 0t20.5 2.5t24.5 9.5t21 21t10 36q2 54 -5 515q0 26 -8 43.5t-18.5 24t-21 9t-18.5 0.5l-7 -1q6 19 18.5 27t39.5 4q37 -5 141 -1q24 1 46 -31q27 -35 55.5 -99.5t70 -177t58.5 -154.5
q12 27 41.5 95t46 104t40 87t41 85.5t32.5 57.5q6 10 12 18l1 1q14 16 51 13q12 -1 29 -2t25 -1t22 0.5t31 2.5q33 5 48 -2.5t17 -29.5l-9 3t-20 1.5t-25 -7.5t-20.5 -28.5t-9.5 -55.5q-3 -192 2 -501q0 -34 21 -51.5t42 -17.5h21q-10 -26 -26.5 -35.5t-45.5 -4.5
q-47 9 -68 9.5t-74 -5.5q-45 -5 -59 35z" />
    <glyph glyph-name="N" unicode="N" horiz-adv-x="755" 
d="M25 36q1 1 9 0t20.5 3t25 9.5t21.5 20.5t9 36q2 76 -4 512q-1 26 -8.5 43.5t-18 23.5t-21 8.5t-18.5 1.5l-7 -2q7 19 19 26.5t39 3.5q76 -9 139 0q8 1 21 1q27 5 36 -1q23 -14 51.5 -82.5t70 -174t80.5 -175.5q25 -45 39 -73q1 75 -2.5 219t-3.5 169q-1 42 -20.5 62.5
t-39.5 20.5h-19q7 19 18.5 27t38.5 4q69 -10 140 -1q72 10 76 -28q-3 1 -8.5 2.5t-18.5 0t-23.5 -9t-19 -29.5t-8.5 -56q-2 -302 4 -501q1 -36 26 -48q31 -4 67 18q5 3 5 -1q-1 -3 -6 -17q-16 -43 -46.5 -65t-64 -22.5t-64 8.5t-51.5 24q-34 25 -81.5 124t-106 223
t-110.5 189q0 -262 3 -424q0 -22 9 -37t21 -21t24.5 -9t20.5 -3l9 1q-18 -49 -72 -39q-48 8 -68.5 8.5t-72.5 -5.5q-45 -5 -59 35z" />
    <glyph glyph-name="O" unicode="O" horiz-adv-x="705" 
d="M605 664q-10 -9 -26.5 -22t-64.5 -31.5t-90 -10.5q-18 3 -35 9.5t-25.5 11.5t-21 13.5t-14.5 9.5q-8 -5 -19 -18q-36 -44 -61 -109.5t-25 -139.5q0 -127 49 -194t109 -74q2 0 4 -0.5t3 -0.5q72 -3 121.5 40.5t83.5 131.5q27 80 24.5 144.5t-18.5 105.5l-16 40q4 -3 11 -9
t24.5 -26t31.5 -43t26 -59t14 -75q8 -186 -132 -308q-38 -33 -91 -48q-58 -20 -118 -10q-132 25 -203 130q-68 105 -77 228.5t37 208.5q62 125 211 178q3 1 8 2t7 2q25 8 51 11.5t39 3.5h14q24 -43 66 -66t72 -24z" />
    <glyph glyph-name="P" unicode="P" horiz-adv-x="723" 
d="M50 33q2 -1 6 -1.5t14.5 0t19 5.5t16 18.5t9.5 34.5q11 117 14 255t-8 263q-4 34 -21 54.5t-32 24.5l-14 4q7 20 21 27.5t45 3.5q56 -7 199 2q11 1 24 1q108 8 171.5 3t116.5 -39q41 -27 60.5 -70.5t18 -84.5t-16.5 -77q-12 -34 -47 -74q-69 -78 -217 -64
q-130 13 -116 106q5 34 48 50q35 12 42 -1q2 -2 1 -6q-11 -38 5.5 -57t48.5 -19q21 2 30 4q5 2 13 4q29 14 38.5 56t4.5 89q-4 35 -17.5 59t-35.5 36t-41 17t-45 7q-54 4 -88 -35.5t-40 -112.5v-4q-4 -205 16 -416q4 -37 19.5 -53.5t29.5 -14.5l14 2q-21 -49 -82 -39
q-57 7 -78.5 7t-83.5 -7q-45 -5 -62 42z" />
    <glyph glyph-name="Q" unicode="Q" horiz-adv-x="1621" 
d="M605 664q-10 -9 -26.5 -22t-64.5 -31.5t-90 -10.5q-18 3 -35 9.5t-25.5 11.5t-21 13.5t-14.5 9.5q-8 -5 -19 -18q-36 -44 -61 -109.5t-25 -139.5q0 -127 49 -194t109 -74q2 0 4 -0.5t3 -0.5q50 -2 87 18q-38 45 -65 84q-46 65 -57 110t0.5 59.5t27.5 10.5q4 -1 5 -11.5
t8.5 -33t26.5 -47.5q9 -13 15.5 -20t28 -21.5t54.5 -29.5q12 -6 38 -20q20 32 36 73q27 80 24.5 144.5t-18.5 105.5l-16 40q4 -3 11 -9t24.5 -26t31.5 -43t26 -59t14 -75q6 -117 -50 -212q50 -41 108.5 -100.5t139.5 -145t127 -132.5q108 -110 268 -155q134 -37 209 -3
q71 31 35 114q49 -5 70 -37q9 -18 10 -39t-17 -46.5t-52 -43.5q-72 -37 -168 -29t-198 49.5t-197 107.5q-248 174 -425 358q-35 -28 -83 -42q-58 -20 -118 -10q-132 25 -203 130q-68 105 -77 228.5t37 208.5q62 125 211 178q3 1 8 2t7 2q25 8 51 11.5t39 3.5h14
q24 -43 66 -66t72 -24z" />
    <glyph glyph-name="R" unicode="R" horiz-adv-x="1699" 
d="M75 34q2 -1 6 -1.5t14.5 0.5t19 5.5t16 18t9.5 34.5q11 117 14 255t-8 263q-4 34 -21 54.5t-31 24.5l-15 4q7 19 21 27t45 4q62 -8 190 0h7q121 11 190 6t124 -48q47 -37 63.5 -101.5t8.5 -119.5t-27 -96q-60 -123 -199 -73q0 -4 2 -10t19.5 -23t49.5 -32
q51 -23 116.5 -77.5t114 -103.5t139.5 -145t137 -143q109 -112 272 -158q137 -38 214 -4q75 32 37 117q50 -5 71 -38q9 -18 10.5 -39.5t-17 -47t-53.5 -44.5q-73 -39 -171.5 -30.5t-202.5 50.5t-201 111q-160 112 -321 255.5t-256 278.5q-47 66 -58 112.5t0.5 61t28.5 10.5
q3 -1 6 -15t17.5 -24t46.5 -3q30 6 48 51.5t18 104.5q0 43 -13 72.5t-36 43.5t-43 20t-47 8q-54 5 -88 -42.5t-40 -135.5q0 -6 -1 -8q0 -196 17 -366q4 -38 20 -54.5t30 -13.5l13 2q-21 -50 -82 -40q-54 7 -78.5 7t-83.5 -7q-45 -5 -62 42z" />
    <glyph glyph-name="S" unicode="S" horiz-adv-x="619" 
d="M520 704q-2 -5 -5.5 -12.5t-18.5 -27.5t-35 -34.5t-56 -25.5t-79 -9q-33 2 -67 19.5t-54 29.5t-29 5q-15 -17 -13 -36t26.5 -47t51 -52.5t59.5 -52.5q17 -14 25 -21q104 -82 165.5 -145t85.5 -110.5t27.5 -92.5t-8.5 -90q-14 -67 -50 -119.5t-83 -85t-105.5 -55
t-115.5 -32.5t-115.5 -13t-102 -0.5t-77.5 8.5q-73 12 -135.5 39.5t-104.5 64.5t-71 80t-36.5 88t0.5 86.5t38.5 78t79.5 60.5q-3 -5 -7.5 -13.5t-14.5 -35t-15 -52.5t-2 -61t17 -66t48.5 -62.5t87.5 -53.5q91 -39 198 -44.5t195 16.5t147.5 71.5t62.5 114.5q3 66 -36 125.5
t-96.5 105.5t-115.5 91t-99 99.5t-41 112.5v4q-6 52 40 107q22 26 52.5 45t58 27t51.5 12t38 4h15q14 -25 41.5 -39t57.5 -15.5t57.5 0t44.5 5.5z" />
    <glyph glyph-name="T" unicode="T" horiz-adv-x="665" 
d="M176 34q2 -1 6 -1.5t14.5 0t18.5 5t16 18t10 34.5q11 115 13.5 253.5t-8.5 261.5v2q-7 23 -34 29.5t-57 -10t-42 -53.5q-13 -45 -7.5 -72.5t18.5 -38.5l14 -11q-61 -16 -91 69q-10 27 -15 70t-9.5 70.5t-14.5 32.5l22 32q35 -7 61.5 -9t66.5 -1t58 1h5q19 0 87.5 1.5
t95.5 0.5q16 0 36 -2q15 0 46.5 -0.5t46 -0.5t41 2.5t54.5 7.5l23 -32q-11 -5 -16 -32.5t-10 -70.5t-15 -70q-31 -85 -95 -69q2 1 6 3.5t12 13t13 23t4.5 34.5t-9.5 48q-13 37 -44 54t-58 10.5t-32 -29.5q-8 -119 -4 -260t15 -251q4 -37 19.5 -53.5t28.5 -14.5l14 2
q-20 -49 -82 -39q-54 8 -77.5 9t-82.5 -5q-46 -6 -62 38z" />
    <glyph glyph-name="U" unicode="U" horiz-adv-x="717" 
d="M622 162q2 -38 -9.5 -64.5t-45.5 -53.5q-44 -35 -121 -49t-145.5 -8.5t-113.5 21.5q-68 24 -97 59.5t-25 73.5q8 338 -7 465q-4 34 -20 55t-30 25l-15 4q8 19 21 26.5t43 4.5q77 -10 157 -1q37 5 53.5 -2.5t18.5 -30.5q-2 1 -6.5 1.5t-15.5 -2t-20 -9t-17 -23.5t-11 -43
q-14 -160 4 -431q0 -3 1 -5q6 -83 132 -74q21 1 38 4t29 9t21.5 10t15.5 13.5t10 13.5t6 16t3 14.5t2 16t1 14.5q12 268 -3 397q-4 34 -20 55t-30 25l-15 4q7 20 20.5 27.5t43.5 3.5q76 -10 155 -1q36 5 53 -2.5t19 -29.5q-2 1 -6.5 1.5t-15.5 -2t-19.5 -9.5t-17 -24
t-10.5 -43q-7 -80 -9 -257.5t-2 -194.5z" />
    <glyph glyph-name="V" unicode="V" horiz-adv-x="835" 
d="M295 684q-2 0 -5 0.5t-12 1.5t-15.5 0t-16 -4t-13 -9.5t-6 -17t3.5 -26.5q82 -263 157 -440q9 -21 17.5 -21.5t20.5 21.5q22 53 88.5 202t82.5 188q11 29 8 47.5t-16 28t-27.5 14t-25.5 5.5h-12q21 54 70 48q67 -9 185 1q20 2 30.5 -8t10.5 -27q-3 0 -8.5 -1t-21 -5.5
t-30 -12.5t-32 -24.5t-29.5 -38.5q-96 -170 -208 -461q0 -2 -1 -3q-9 -38 -5 -63t16.5 -37.5t26 -18.5t24.5 -7h10q-14 -33 -57 -48.5t-89 -5.5q-33 6 -60.5 24t-45.5 39t-35 52t-25.5 53t-20 54t-16.5 44q-37 88 -82.5 211t-71.5 185q-14 34 -32.5 49t-29.5 13l-11 -1
q23 52 92 42q49 -8 76 -8t81 6q43 5 60 -41z" />
    <glyph glyph-name="W" unicode="W" horiz-adv-x="1709" 
d="M1016 212q-47 -118 -76 -216q0 -1 -1 -2q-10 -34 -45 -26q-33 7 -60.5 25t-45.5 38.5t-35 51.5t-25.5 53t-20 54t-16.5 44q-28 68 -78 202q-51 -109 -122 -291q0 -2 -1 -3q-9 -38 -5 -63t16.5 -37.5t26 -18.5t24.5 -7h10q-14 -33 -57 -48.5t-89 -5.5q-33 6 -60.5 24
t-45.5 39t-35 52t-25.5 53t-20 54t-16.5 44q-37 88 -82.5 211t-71.5 185q-14 34 -32.5 49t-29.5 13l-11 -1q23 52 92 42q49 -8 76 -8t81 6q43 5 60 -41q-2 0 -5 0.5t-12 1.5t-15.5 0t-16 -4t-13 -9.5t-6 -17t3.5 -26.5q82 -263 157 -440q9 -21 17.5 -21.5t20.5 21.5
q15 36 151 343q-9 24 -39 99q-14 33 -32.5 48t-29.5 13l-11 -1q23 53 92 42q47 -8 71.5 -8t84.5 6q9 2 17 0q25 -1 57.5 -14.5t32.5 -28.5q-7 0 -18.5 -2.5t-40 -17.5t-48.5 -41q75 -243 154 -431q3 -10 8 -15l1 2v3q103 250 218 459q100 183 235.5 280t269.5 89
q61 -4 81 -34t12 -66q-4 -17 -10 -34t-10 -25l-4 -8q-4 105 -105 77q-92 -26 -210 -137q-56 -52 -94 -104q-41 -55 -75 -110.5t-62 -113t-42.5 -90.5t-37.5 -91t-26 -66z" />
    <glyph glyph-name="X" unicode="X" horiz-adv-x="878" 
d="M468 276q-15 -18 -30.5 -38t-33 -42t-25.5 -33q-24 -31 -33 -55.5t-8.5 -36t8 -34.5t9.5 -35q5 -26 -18.5 -46t-72.5 -1q-25 9 -37.5 25.5t-19 36.5t-12.5 27q-8 10 -40 21t-51 30q-31 29 -25.5 61t47.5 44q32 9 53.5 4.5t48 1t50.5 28.5q65 68 119 127q-82 94 -124 137
q-25 25 -52.5 31.5t-47.5 2t-42.5 2t-39.5 32.5q-15 24 12.5 65t69.5 45q27 3 38.5 17.5t13 31t19.5 33t56 22.5q31 5 47 -14t14 -53q-1 -7 -6.5 -40t-3.5 -54.5t15 -40.5q44 -67 102 -136q69 82 109 135q21 28 23.5 56.5t-5.5 47t-4.5 42t26.5 43.5q21 19 66 -2t55 -62
q5 -22 16.5 -31t25.5 -11t28 -4.5t28.5 -18t23.5 -45.5t-7.5 -48.5t-49.5 -21.5q-23 -3 -44.5 -1t-46 -3.5t-41.5 -20.5q-66 -61 -132 -136q31 -34 113 -121q27 -28 50 -41t34 -14t35 3t36 4q15 1 29 -9.5t19 -32.5t-15 -56q-13 -23 -31.5 -33t-38.5 -13t-28 -8
q-12 -7 -27 -36.5t-38 -45.5q-33 -26 -64 -16.5t-36 53.5q-3 22 4 51t6 53t-21 51q-24 33 -98 126z" />
    <glyph glyph-name="Y" unicode="Y" horiz-adv-x="1025" 
d="M563 686q-2 0 -5 0.5t-12.5 1.5t-17 -0.5t-17 -4t-13.5 -9t-6.5 -16.5t4.5 -26q61 -171 122 -305q119 175 150 248q16 46 4 68.5t-35 28.5l-23 5q19 52 69 46q70 -8 185 4q41 4 43 -33q-9 -1 -23 -3.5t-46.5 -23t-51.5 -54.5q-78 -141 -258 -424q-86 -148 -207.5 -300
t-208.5 -231q-68 -63 -150.5 -104.5t-150.5 -46.5t-102 39q-19 30 -19 53t14 39t30.5 25.5t30.5 14.5l14 4q0 -44 16.5 -64t42 -17.5t57.5 9.5q80 23 185 117t185 213q94 140 122 206q13 51 -9 97q-38 82 -88.5 200.5t-80.5 181.5q-15 32 -34.5 46.5t-30.5 12.5l-12 -1
q23 51 97 41q57 -6 79.5 -6t85.5 7q46 5 65 -39z" />
    <glyph glyph-name="Z" unicode="Z" 
d="M392 -7q-34 0 -148 2t-155 2q-6 0 -18.5 -0.5t-19.5 -0.5q-20 -1 -32 18.5t0 32.5q43 8 77 53q71 121 147 263.5t101 212.5q9 26 12 42q-55 4 -87 5q-7 0 -27 1t-28 1t-24.5 -1t-24.5 -4.5t-19 -9.5t-18 -16.5t-12 -25.5q-13 -44 -7.5 -71t18.5 -38l13 -11
q-61 -16 -89 68q-10 27 -15 69.5t-9.5 69.5t-14.5 32l21 32q35 -7 61 -9t66 -1t57 1h7q71 0 189 2l2 1q37 0 55 1q18 0 26 1q22 0 50 3q19 2 33 -13.5t14 -33.5q-4 -2 -12 -7t-29 -28.5t-39 -56.5q-39 -72 -85 -165t-94 -193t-65 -135q13 -1 44 -1q9 0 37 -1.5t45 -0.5
t40.5 4t39 13t23.5 26q17 40 11 65t-21 37l-16 11q63 16 94 -64q10 -25 15 -65t9.5 -65.5t15.5 -30.5l-22 -29q-36 6 -63.5 7.5t-69 1t-59.5 -0.5z" />
    <glyph glyph-name="bracketleft" unicode="[" horiz-adv-x="256" 
d="M65 -73q8 143 10 321t-6 331q-2 26 -9 51.5t-14 40.5t-12.5 27t-4.5 16.5t10 4.5t65.5 2t79.5 1q28 -1 42 -11t16 -37q-2 -3 -13 3t-25.5 -17t-17.5 -74q-13 -263 8 -651q5 -87 38 -85l8 2q-8 -33 -22 -44.5t-38 -5.5q-39 10 -56.5 11t-60.5 -6q-10 -2 -10 10q0 6 3 28
q7 45 9 82z" />
    <glyph glyph-name="backslash" unicode="\" horiz-adv-x="359" 
d="M267 -76q-3 28 9 43q16 16 38 7q24 -10 24 -31q2 -24 -32 -44q-34 -21 -59 8.5t-3 62.5q4 6 9 2q6 -4 2 -9q-4 -6 -6 -14q3 -20 18 -25zM304 16q13 -14 4 -26q-6 -10 -22 -12q-31 -7 -50 10q-1 0 -3 2q-13 17 -26 48q-8 18 -8 28q-2 15 9 20q22 8 33 9q26 2 33 -19
q0 -4 -1 -6q-3 -3 -5 -3q-9 0 -18 -4l-1 -1h1q9 1 18 1t14 -4q1 0 2 -1l1 -1q1 -1 1 -2t1 -2.5t2 -2.5q3 -6 5 -14q0 -7 -5 -7l-1 -1q-22 -4 -31 -4q4 -5 22 -5h2q12 1 18 0h1q3 -2 4 -3zM131 95q13 1 40 16q12 7 20 18.5t9 18.5l2 8q16 -15 67 1q27 9 55 -5.5t19 -36.5
q-7 -19 -22.5 -22.5t-25.5 6.5t-6 25q4 12 -44 -7q-43 -18 -73 -40q-43 -32 -76 -9q-22 14 -14 32q2 4 6 7q17 12 26.5 9.5t13.5 -12.5zM149 151q-83 216 -120 330.5t-45 163.5t-5 109q0 4 12 -9.5t35.5 -53t53.5 -101t71.5 -171t83.5 -244.5q-24 -17 -35 12
q-23 60 -62.5 167.5t-58.5 154t-27 48.5q-9 2 10 -55q17 -52 123 -320q5 -13 -4 -21t-21 -9z" />
    <glyph glyph-name="bracketright" unicode="]" horiz-adv-x="248" 
d="M197 -78q1 -20 11 -100q3 -20 -5 -20h-4q-45 8 -62 6.5t-58 -11.5q-25 -6 -39.5 5.5t-22.5 44.5q2 3 11 -2t21 16.5t15 68.5q8 139 11.5 320.5t-3.5 330.5q-3 51 -17 73.5t-27 19.5l-13 -4q2 27 16 36.5t43 11.5q20 1 76 -1t73 -2q14 0 8 -16q-2 -4 -7 -16
q-27 -59 -31 -109q-18 -248 4 -652z" />
    <glyph glyph-name="asciicircum" unicode="^" horiz-adv-x="575" 
d="M408 356q-43 110 -108 223q-9 15 -23 24q-14 -10 -18 -18q-43 -75 -92 -222q-7 -20 -7 -34.5t2.5 -20.5t11 -17t12.5 -17q8 -13 -1 -27.5t-39 -11.5q-16 1 -26 8t-17.5 16.5t-12.5 12.5q-6 4 -25.5 4.5t-34.5 8.5q-23 11 -26.5 28t17.5 31q7 4 36 12t40 29q60 123 94 228
q7 23 -2 42.5t-17 29.5t3 35q6 13 36 9t43 -24q9 -13 20 -15.5t21 0.5q3 3 8 10.5t9 12.5t14.5 8.5t26.5 1.5q17 -1 22.5 -14t-0.5 -29q-1 -4 -9 -22.5t-8 -24t2 -25.5q29 -81 105 -216q11 -19 21 -28.5t15.5 -11.5t19.5 -3.5t20 -2.5q14 -3 18.5 -18t-14.5 -38
q-10 -11 -22 -14t-20 -1t-17 0q-7 -2 -19 -16t-26 -19q-22 -9 -36.5 0.5t-11.5 32.5q1 8 12.5 34.5t2.5 48.5z" />
    <glyph glyph-name="underscore" unicode="_" horiz-adv-x="610" 
d="M132 -35q165 -7 313 5q24 2 39.5 14t21.5 24.5t19.5 21.5t34.5 7q19 -2 29 -33.5t-6 -57.5q-13 -19 -5 -35t16 -29t-11 -49q-11 -19 -28 -19t-34 16q-5 5 -19.5 21t-26.5 24.5t-28 10.5q-115 11 -305 -6q-27 -2 -43.5 -8t-22 -12t-14 -20t-13.5 -21q-4 -6 -12 -9.5
t-17.5 -3t-19.5 10t-17 27.5q-6 22 -4 32t9.5 24t8.5 20q1 9 -8 30t-8 40q2 30 19.5 41t44.5 -4q13 -8 25 -24t25.5 -26.5t36.5 -11.5z" />
    <glyph glyph-name="grave" unicode="`" horiz-adv-x="253" 
d="M39 713q49 18 101 -11q23 -12 48 -33.5t38 -36.5l13 -15l-111 1z" />
    <glyph glyph-name="a" unicode="a" horiz-adv-x="818" 
d="M386 167q-28 2 -47 16t-25.5 32.5t-6 37.5t7.5 32q17 28 46.5 42.5t59 13.5t57.5 -7q-43 113 -76 190q-8 18 -12.5 22.5t-11.5 -3.5t-18 -33l-2 -2q-21 -52 -82.5 -191.5t-77.5 -179.5q-11 -28 -7.5 -46.5t16.5 -28t27 -14t26 -4.5l11 -1q-21 -54 -69 -48q-109 15 -175 8
q-19 -2 -31 9.5t-12 29.5q3 0 8 -0.5t19.5 2t28 8.5t29.5 20.5t28 36.5q92 168 203 458v3q9 38 5 62.5t-16.5 37.5t-26 18.5t-24.5 5.5l-10 1q14 32 56.5 47.5t88.5 6.5q32 -6 60 -24t46 -38t35 -51t25.5 -52.5t20 -53t16.5 -43.5q38 -88 84 -209.5t72 -181.5q14 -33 32 -48
t29 -13l11 2q-22 -53 -91 -42q-54 7 -75 7t-80 -7q-43 -5 -60 40q2 0 5 -0.5t11.5 -1.5t15.5 0t16 4t12.5 9.5t6 17t-3.5 26.5q-4 12 -12 37.5t-13 39.5q-24 66 -40.5 84.5t-57.5 16.5q-36 -1 -49 -26.5t-8 -49.5z" />
    <glyph glyph-name="b" unicode="b" horiz-adv-x="696" 
d="M469 333q-1 0 -4 -0.5t-4 -1.5q-5 -1 -13 -3q-105 -27 -210 -27q3 -58 6 -101q11 -68 44.5 -103.5t84.5 -31.5q28 2 49 7.5t45 19t37 40.5t13 67q0 32 -0.5 52t-5 43t-15 33t-27.5 6zM422 404q1 0 2.5 1t2.5 2q31 12 52 51.5t21 85.5q0 35 -13 59t-35.5 36t-42.5 16.5
t-47 6.5q-53 4 -86.5 -35t-39.5 -111v-4q-2 -68 0 -141q92 2 186 33zM11 38q2 -1 6 -1.5t14.5 0.5t18.5 5.5t16 18t10 34.5q9 98 13 220q-185 38 -267 153q-29 40 -35 80.5t5.5 68.5t33.5 44q18 13 43 16t41 -1l15 -3q-83 -91 -30 -173.5t195 -115.5q2 131 -9 223
q-4 33 -20.5 53.5t-30.5 24.5l-15 4q7 19 21 27t44 4q58 -8 190 1q4 0 6 1h20q109 9 173 4t117 -39q47 -31 64.5 -83.5t10 -98.5t-29.5 -76q-35 -47 -83 -66q54 -18 98 -72q44 -48 33.5 -126.5t-71.5 -127.5q-24 -19 -49 -29.5t-66.5 -13.5t-63.5 -3.5t-89.5 3.5t-94.5 5h-3
q-14 0 -40.5 1t-42 1.5t-39.5 -0.5t-47 -4q-45 -5 -62 41z" />
    <glyph glyph-name="c" unicode="c" horiz-adv-x="625" 
d="M610 711q-2 -5 -6 -13.5t-20 -30t-37.5 -37t-60.5 -27.5t-86 -10q-29 1 -57 13q-6 2 -17 7.5t-17 7t-16 2t-22.5 -3.5t-29.5 -13q-41 -23 -63 -93t-22 -155q0 -133 54 -200.5t115 -67.5h11q51 5 84 24.5t44 44.5t14 49t0 40l-4 17q9 -2 23.5 -7t40.5 -27.5t32 -54.5
q6 -31 -13 -69.5t-54.5 -70.5t-89.5 -51t-110 -13q-10 0 -22 3q-133 23 -202 129q-45 69 -63 149.5t-11 152t34 134.5q31 71 70.5 113t109.5 71q34 17 72.5 25.5t60.5 8.5l21 1q10 -19 33 -35l5 -2.5t4 -2.5q33 -18 81.5 -20t81.5 5z" />
    <glyph glyph-name="d" unicode="d" horiz-adv-x="692" 
d="M15 40q2 -1 6 -1.5t14.5 0t19 5.5t16 18.5t9.5 34.5q11 113 14 254t-8 262q-4 34 -20.5 54.5t-31.5 24.5l-14 4q7 19 21 26.5t44 3.5q73 -8 194 0q16 1 32 1q65 0 103 1q55 0 118.5 -34t90.5 -82q37 -67 48.5 -152t2.5 -156t-31 -130q-35 -94 -87.5 -134t-135.5 -42
q-77 -2 -127 0q-14 0 -25 1q-105 9 -190 -1q-44 -5 -63 42zM242 487q0 -14 -1 -17q-2 -180 15 -347v-4q1 -5 1 -13q4 -19 33 -29.5t106 -12.5q40 -1 66.5 26t38 76.5t15 98.5t2.5 111q-3 139 -40 213.5t-99 76.5q-32 1 -51.5 -2t-41 -15.5t-32 -43.5t-12.5 -81q0 -3 -0.5 -9
t-0.5 -9q0 -13 1 -19z" />
    <glyph glyph-name="e" unicode="e" horiz-adv-x="625" 
d="M610 711q-2 -5 -6 -13.5t-20 -30t-37.5 -37t-60.5 -27.5t-86 -10q-29 1 -57 13q-6 2 -17 7.5t-17 7t-16 2t-22.5 -3.5t-29.5 -13q-53 -29 -73 -132q11 -32 34 -54q29 -26 69.5 -34t66.5 11t13 63q-3 10 11 11q29 4 60 -18q21 -15 24 -36q9 -52 -27 -79t-95 -25
q-70 2 -168 44q0 -132 54 -199.5t115 -67.5h11q51 5 84 24.5t44 44.5t14 49t0 40l-4 17q9 -2 23.5 -7t40.5 -27.5t32 -54.5q6 -31 -13 -69.5t-54.5 -70.5t-89.5 -51t-110 -13q-10 0 -22 3q-133 23 -202 129q-45 69 -63 149.5t-11 152t34 134.5q31 71 70.5 113t109.5 71
q34 17 72.5 25.5t60.5 8.5l21 1q10 -19 33 -35l5 -2.5t4 -2.5q33 -18 81.5 -20t81.5 5z" />
    <glyph glyph-name="f" unicode="f" horiz-adv-x="681" 
d="M17 33q34 -8 62 12.5t39 91.5q19 126 19 373q-2 59 -5 85q-19 101 -91 84q0 2 0.5 5.5t5 11.5t12 13.5t22.5 9t35 1.5q48 -6 269 -3l201 10q-16 -38 11 -106q5 -12 14 -23t18.5 -18.5t18.5 -13.5t14 -10t4 -6q-2 -7 -13 -10.5t-21 -3.5l-9 -1q-6 1 -17 3.5t-40 18.5
t-53 41q-38 41 -97 52t-91 -20q-39 -39 -36.5 -109.5t44.5 -107.5q29 -26 69.5 -34t66.5 11t13 63q-3 10 11 11q29 4 60 -18q21 -16 24 -36q9 -53 -27 -80t-95 -25q-32 1 -74 12.5t-68 22.5l-26 10l-1 -72q3 -83 9 -143q3 -13 3 -24v-2q5 -40 24.5 -57.5t36.5 -15.5l17 2
q-21 -48 -94 -38q-82 12 -141 6q-9 -1 -57 -7q-33 -2 -49.5 6.5t-16.5 18.5z" />
    <glyph glyph-name="g" unicode="g" horiz-adv-x="645" 
d="M631 706q-2 -5 -6 -13.5t-20.5 -30t-38.5 -37.5t-61.5 -28t-86.5 -10q-28 1 -58 13q-6 2 -17 7.5t-16.5 7t-16 2.5t-23 -3.5t-29.5 -13.5q-42 -23 -64 -93.5t-22 -156.5q0 -134 54.5 -202.5t116.5 -68.5h11q120 11 141 102q10 87 -46 118q-41 20 -68 19.5t-40 -10.5
l-13 -11q-2 27 16 46.5t66 27.5q28 4 72.5 2t64.5 -3.5t36 8.5l27 -26q-16 -42 -16.5 -119.5t-1.5 -85.5q-2 -31 -27 -67t-64 -66t-95 -45t-112 -4q-1 1 -4 1q-2 0 -2 1q-19 3 -34 10q-97 34 -160 116q-50 66 -68 148t-9 155t37 138q48 111 152 169q37 25 83.5 38t74.5 13
l27 1q11 -21 32 -34q2 -1 5.5 -3.5t5.5 -3.5q33 -18 82.5 -20t81.5 5z" />
    <glyph glyph-name="h" unicode="h" horiz-adv-x="744" 
d="M20 34q2 -1 6 -1.5t14.5 0.5t18.5 5.5t16 18t10 34.5q11 115 13.5 254t-8.5 263q-4 34 -20.5 54.5t-31.5 24.5l-14 4q7 19 21 27t45 4q78 -10 159 -1q37 5 54 -2.5t20 -29.5q-3 1 -7 1.5t-15.5 -2t-20.5 -9t-17.5 -24t-11.5 -42.5q-7 -76 -5 -208q3 -32 43.5 -42.5
t74 10.5t20.5 64q-2 9 10 11q28 4 60 -18q24 -15 27 -37q8 -53 -28 -80t-96 -25q-40 1 -109 22q6 -128 14 -213q4 -37 20 -53.5t30 -13.5l13 2q-21 -50 -82 -40q-54 8 -77.5 9t-83.5 -5q-46 -5 -62 38zM423 32q2 -1 6 -1.5t14.5 0t19 5.5t16 18.5t9.5 34.5q11 114 14 257
t-8 264q-4 34 -20.5 55t-31.5 25l-14 4q7 20 21 27.5t44 3.5q78 -10 160 -1q37 5 54 -2.5t20 -29.5q-3 1 -7 1.5t-15.5 -2t-20.5 -9.5t-17.5 -24t-11.5 -43q-8 -119 -4 -263.5t15 -255.5q4 -38 20 -54.5t30 -14.5l13 2q-11 -26 -30 -35.5t-52 -4.5q-55 9 -78.5 9.5
t-82.5 -5.5q-46 -5 -63 39z" />
    <glyph glyph-name="i" unicode="i" horiz-adv-x="355" 
d="M36 37q2 -1 6 -1.5t14.5 0t19 5t16 18t9.5 34.5q11 113 14 254t-8 261q-4 34 -20.5 54.5t-30.5 24.5l-15 4q7 19 21 26.5t44 3.5q87 -9 159 0q37 5 54 -3t19 -30q-3 1 -7 1.5t-15 -2t-20 -8.5t-17.5 -23.5t-11.5 -42.5q-8 -119 -4 -261t15 -252q4 -37 20 -53.5t30 -14.5
l13 2q-21 -49 -82 -39q-53 7 -80.5 7t-85.5 -7q-22 -2 -34.5 7.5t-22.5 34.5z" />
    <glyph glyph-name="j" unicode="j" horiz-adv-x="641" 
d="M246 712q7 -2 19.5 -4.5t46 -6t62 -0.5t58.5 18t45 42q73 -11 112 -57q10 -9 17 -28q6 -16 7 -25q1 -6 8 -126q3 -80 5.5 -156t-16 -154.5t-58.5 -125.5q-90 -105 -192 -128q-85 -17 -162 23q-43 22 -60 41q-69 58 -74 121q-2 13 -2 90t-16 119l27 26q6 -9 35 -8.5
t63 3.5t71 -2q85 -14 79 -75q-2 2 -4.5 5t-13.5 8.5t-23.5 7.5t-33 -2t-43.5 -17q-52 -29 -45 -112q16 -109 161 -114q60 7 108.5 75t48.5 197q0 163 -8 247q-5 -1 -17 -1q-46 -2 -83.5 9.5t-59 29t-36.5 36t-20 31.5z" />
    <glyph glyph-name="k" unicode="k" horiz-adv-x="1638" 
d="M470 600q22 28 14.5 47t-28.5 29l-20 9q7 19 21 27t45 4q69 -9 191 3q20 2 31.5 -8.5t11.5 -28.5q-8 -1 -21 -4.5t-49 -23t-65 -48.5q-67 -64 -152 -139.5t-119 -108.5q20 -59 82 -88q55 -25 127 -84.5t123.5 -112t151.5 -158.5t150 -156q117 -119 291 -169
q145 -43 232 -10q83 31 52 116q-2 7 -5 14q54 -5 78 -40q10 -20 11 -43.5t-18.5 -52t-57.5 -48.5q-80 -42 -187 -33t-221 55t-220 121q-182 128 -356.5 289t-265.5 314q-23 40 -55 74q3 -143 15 -252q4 -37 19.5 -53.5t29.5 -14.5l14 2q-21 -50 -82 -40q-54 7 -79 7t-83 -7
q-44 -4 -63 42q2 -1 6 -1.5t14.5 0.5t19 5.5t16 18t9.5 34.5q11 114 14 256.5t-8 263.5q-4 34 -20.5 54.5t-31.5 24.5l-15 4q7 20 21 27.5t45 3.5q70 -9 191 3q21 2 32.5 -8t11.5 -28q-3 1 -7 1.5t-15.5 -2t-20.5 -9t-17.5 -24t-11.5 -42.5q-8 -85 -6 -205q6 5 46.5 36
t64.5 49.5t59.5 50t59.5 57.5z" />
    <glyph glyph-name="l" unicode="l" horiz-adv-x="645" 
d="M16 30q33 -8 61.5 13t39.5 92q19 132 16 394q0 77 -24.5 120t-73.5 32q0 2 0.5 5.5t5 11.5t11.5 13.5t22.5 9.5t35.5 1q108 -12 250 4q32 3 50 -8.5t20 -25.5l1 -13q-30 1 -62 -14.5t-50 -34.5q-23 -23 -31.5 -92.5t-5.5 -127.5l3 -58q-9 -130 16 -203q9 -27 34 -47
t55 -26.5t63 6.5t55 46q42 62 70.5 90.5t52.5 20.5q-29 -50 -35 -123l-9 -121q-116 6 -233 7q-209 0 -270 -5q-33 -3 -50 5t-18 18v10z" />
    <glyph glyph-name="m" unicode="m" horiz-adv-x="886" 
d="M598 34q1 1 9 0t21 3t25 9.5t21 20.5t10 36q3 117 -4 443q-4 -9 -16 -39t-20 -48q-42 -98 -95.5 -204.5t-62.5 -132.5q-4 -12 -24 -16.5t-38 -3.5l-17 2q-10 0 -18 7q-11 5 -14 13q-9 27 -62 133t-94 204q-25 60 -37 90q-1 -120 2 -446q0 -34 21.5 -51.5t42.5 -17.5h21
q-10 -26 -26.5 -35.5t-45.5 -4.5q-51 8 -69.5 9t-72.5 -5q-45 -5 -59 35q1 1 9 0t20.5 2.5t24.5 9.5t21 21t10 36q2 54 -5 515q0 26 -8 43.5t-18.5 24t-21 9t-18.5 0.5l-7 -1q6 19 18.5 27t39.5 4q37 -5 141 -1q24 1 46 -31q27 -35 55.5 -99.5t70 -177t58.5 -154.5
q12 27 41.5 95t46 104t40 87t41 85.5t32.5 57.5q6 10 12 18l1 1q14 16 51 13q12 -1 29 -2t25 -1t22 0.5t31 2.5q33 5 48 -2.5t17 -29.5l-9 3t-20 1.5t-25 -7.5t-20.5 -28.5t-9.5 -55.5q-3 -192 2 -501q0 -34 21 -51.5t42 -17.5h21q-10 -26 -26.5 -35.5t-45.5 -4.5
q-47 9 -68 9.5t-74 -5.5q-45 -5 -59 35z" />
    <glyph glyph-name="n" unicode="n" horiz-adv-x="764" 
d="M50 35q1 1 9 0t20.5 2.5t24.5 9t21 20.5t10 36q2 54 -5 513q0 12 -1 17q-21 16 -44 20q-40 9 -81 -21q-5 -4 -5 0q0 3 4 18q12 44 41 69t62.5 28.5t64.5 -3t53 -20.5q35 -21 89.5 -112.5t122.5 -208t124 -177.5q0 77 -6 386q0 26 -8 43.5t-18.5 23.5t-21.5 8.5t-18 0.5
l-8 -1q6 19 18.5 27t40.5 4q70 -10 142 -1q33 5 48.5 -2.5t17.5 -29.5l-9 3t-20.5 1.5t-25.5 -7.5t-20.5 -28t-10.5 -55q-1 -125 2 -499q0 -22 9 -37t21.5 -21t25 -9t21.5 -3l9 1q-10 -26 -27 -35.5t-46 -4.5q-49 8 -60 8.5t-62 -4.5h-9q-3 0 -4 1q-1 0 -1 0.5t-1 0.5
q-21 17 -62.5 87.5t-101.5 175t-105 171.5q-7 10 -19 28.5t-16 23.5q0 -88 3 -379q0 -22 9 -37t21 -21t24.5 -9t21.5 -3l8 1q-19 -49 -72 -39q-48 8 -68.5 9t-72.5 -5q-46 -5 -59 35z" />
    <glyph glyph-name="o" unicode="o" horiz-adv-x="728" 
d="M459 0q-42 -13 -82 -13q-140 1 -232 97t-104 233q-5 63 5 124.5t36 119.5t77 103t121 67q43 16 91 17q140 1 233.5 -94t106.5 -232q7 -65 -3 -128.5t-37.5 -123t-82 -105t-129.5 -65.5zM427 651q-33 12 -71 9q-70 -6 -114.5 -99t-39.5 -212q5 -107 45 -182t107 -93
q9 -2 31 -2q56 2 96 50.5t57 119t14 151.5q-2 92 -35.5 161t-89.5 97z" />
    <glyph glyph-name="p" unicode="p" horiz-adv-x="723" 
d="M50 33q2 -1 6 -1.5t14.5 0t19 5.5t16 18.5t9.5 34.5q11 117 14 255t-8 263q-4 34 -21 54.5t-32 24.5l-14 4q7 20 21 27.5t45 3.5q56 -7 199 2q11 1 24 1q108 8 171.5 3t116.5 -39q41 -27 60.5 -70.5t18 -84.5t-16.5 -77q-12 -34 -47 -74q-69 -78 -217 -64
q-130 13 -116 106q5 34 48 50q35 12 42 -1q2 -2 1 -6q-11 -38 5.5 -57t48.5 -19q21 2 30 4q5 2 13 4q29 14 38.5 56t4.5 89q-4 35 -17.5 59t-35.5 36t-41 17t-45 7q-54 4 -88 -35.5t-40 -112.5v-4q-4 -205 16 -416q4 -37 19.5 -53.5t29.5 -14.5l14 2q-21 -49 -82 -39
q-57 7 -78.5 7t-83.5 -7q-45 -5 -62 42z" />
    <glyph glyph-name="q" unicode="q" horiz-adv-x="1621" 
d="M459 0q-42 -13 -82 -13q-140 1 -232 97t-104 233q-5 63 5 124.5t36 119.5t77 103t121 67q43 16 91 17q140 1 233.5 -94t106.5 -232q17 -165 -60 -285q48 -41 106 -99.5t135 -141t123 -128.5q108 -110 268 -155q134 -37 209 -3q71 31 35 114q49 -5 70 -37q9 -18 10 -39
t-17 -46.5t-52 -43.5q-72 -37 -168 -29t-198 49.5t-197 107.5q-241 169 -422 354q-43 -27 -94 -40zM421 298q9 -13 15.5 -20t28 -21.5t54.5 -29.5l12 -6q24 78 21 172q-2 92 -35.5 161t-89.5 97q-33 12 -71 9q-70 -6 -114.5 -99t-39.5 -212q5 -107 45 -182t107 -93
q9 -2 31 -2q55 3 95 49q-40 46 -70 89q-46 65 -57 110t0.5 59.5t27.5 10.5q4 -1 5 -11.5t8.5 -33t26.5 -47.5z" />
    <glyph glyph-name="r" unicode="r" horiz-adv-x="1699" 
d="M75 34q2 -1 6 -1.5t14.5 0.5t19 5.5t16 18t9.5 34.5q11 117 14 255t-8 263q-4 34 -21 54.5t-31 24.5l-15 4q7 19 21 27t45 4q62 -8 190 0h7q121 11 190 6t124 -48q47 -37 63.5 -101.5t8.5 -119.5t-27 -96q-60 -123 -199 -73q0 -4 2 -10t19.5 -23t49.5 -32
q51 -23 116.5 -77.5t114 -103.5t139.5 -145t137 -143q109 -112 272 -158q137 -38 214 -4q75 32 37 117q50 -5 71 -38q9 -18 10.5 -39.5t-17 -47t-53.5 -44.5q-73 -39 -171.5 -30.5t-202.5 50.5t-201 111q-160 112 -321 255.5t-256 278.5q-47 66 -58 112.5t0.5 61t28.5 10.5
q3 -1 6 -15t17.5 -24t46.5 -3q30 6 48 51.5t18 104.5q0 43 -13 72.5t-36 43.5t-43 20t-47 8q-54 5 -88 -42.5t-40 -135.5q0 -6 -1 -8q0 -196 17 -366q4 -38 20 -54.5t30 -13.5l13 2q-21 -50 -82 -40q-54 7 -78.5 7t-83.5 -7q-45 -5 -62 42z" />
    <glyph glyph-name="s" unicode="s" horiz-adv-x="580" 
d="M524 703q-2 -5 -5 -12t-18 -26t-33.5 -33t-53.5 -24.5t-76 -8.5q-32 1 -64 17.5t-51.5 28t-27.5 5.5q-13 -10 -14 -24t9.5 -30t27 -32.5t39.5 -34.5t45 -33t47 -30q71 -45 128 -103.5t75 -114.5q52 -162 -88 -235q-64 -34 -132.5 -38.5t-122.5 15.5t-96 50.5t-60.5 67
t-7.5 65.5q14 38 42 53.5t49 12.5l20 -3q-1 -4 -2 -11.5t-0.5 -28t5 -39t18 -40t34.5 -36.5t58.5 -22.5t86.5 -3.5q61 6 65 56q6 61 -70 136q-29 28 -66 54q-53 37 -89.5 66t-71.5 68t-48 73t-6.5 74.5t39.5 79.5q21 25 50 43t55.5 25.5t49.5 11.5t37 4h14
q13 -24 39.5 -37.5t54.5 -15t54.5 0t43.5 5.5z" />
    <glyph glyph-name="t" unicode="t" horiz-adv-x="665" 
d="M176 34q2 -1 6 -1.5t14.5 0t18.5 5t16 18t10 34.5q11 115 13.5 253.5t-8.5 261.5v2q-7 23 -34 29.5t-57 -10t-42 -53.5q-13 -45 -7.5 -72.5t18.5 -38.5l14 -11q-61 -16 -91 69q-10 27 -15 70t-9.5 70.5t-14.5 32.5l22 32q35 -7 61.5 -9t66.5 -1t58 1h5q19 0 87.5 1.5
t95.5 0.5q16 0 36 -2q15 0 46.5 -0.5t46 -0.5t41 2.5t54.5 7.5l23 -32q-11 -5 -16 -32.5t-10 -70.5t-15 -70q-31 -85 -95 -69q2 1 6 3.5t12 13t13 23t4.5 34.5t-9.5 48q-13 37 -44 54t-58 10.5t-32 -29.5q-8 -119 -4 -260t15 -251q4 -37 19.5 -53.5t28.5 -14.5l14 2
q-20 -49 -82 -39q-54 8 -77.5 9t-82.5 -5q-46 -6 -62 38z" />
    <glyph glyph-name="u" unicode="u" horiz-adv-x="717" 
d="M622 162q2 -38 -9.5 -64.5t-45.5 -53.5q-44 -35 -121 -49t-145.5 -8.5t-113.5 21.5q-68 24 -97 59.5t-25 73.5q8 338 -7 465q-4 34 -20 55t-30 25l-15 4q8 19 21 26.5t43 4.5q77 -10 157 -1q37 5 53.5 -2.5t18.5 -30.5q-2 1 -6.5 1.5t-15.5 -2t-20 -9t-17 -23.5t-11 -43
q-14 -160 4 -431q0 -3 1 -5q6 -83 132 -74q21 1 38 4t29 9t21.5 10t15.5 13.5t10 13.5t6 16t3 14.5t2 16t1 14.5q12 268 -3 397q-4 34 -20 55t-30 25l-15 4q7 20 20.5 27.5t43.5 3.5q76 -10 155 -1q36 5 53 -2.5t19 -29.5q-2 1 -6.5 1.5t-15.5 -2t-19.5 -9.5t-17 -24
t-10.5 -43q-7 -80 -9 -257.5t-2 -194.5z" />
    <glyph glyph-name="v" unicode="v" horiz-adv-x="835" 
d="M295 684q-2 0 -5 0.5t-12 1.5t-15.5 0t-16 -4t-13 -9.5t-6 -17t3.5 -26.5q82 -263 157 -440q9 -21 17.5 -21.5t20.5 21.5q22 53 88.5 202t82.5 188q11 29 8 47.5t-16 28t-27.5 14t-25.5 5.5h-12q21 54 70 48q67 -9 185 1q20 2 30.5 -8t10.5 -27q-3 0 -8.5 -1t-21 -5.5
t-30 -12.5t-32 -24.5t-29.5 -38.5q-96 -170 -208 -461q0 -2 -1 -3q-9 -38 -5 -63t16.5 -37.5t26 -18.5t24.5 -7h10q-14 -33 -57 -48.5t-89 -5.5q-33 6 -60.5 24t-45.5 39t-35 52t-25.5 53t-20 54t-16.5 44q-37 88 -82.5 211t-71.5 185q-14 34 -32.5 49t-29.5 13l-11 -1
q23 52 92 42q49 -8 76 -8t81 6q43 5 60 -41z" />
    <glyph glyph-name="w" unicode="w" horiz-adv-x="1118" 
d="M338 266q115 276 138 344q6 19 54 17q47 2 57 -18q2 -4 62 -119t105 -222q3 -7 29 -72q15 61 33.5 142.5t39 173t27.5 124.5q8 33 -5.5 51t-30.5 20l-17 2q28 43 77 22q38 -17 71.5 -18.5t77.5 7.5q39 6 48 -38q-4 0 -10 -0.5t-22 -5t-29 -12t-26.5 -22.5t-19.5 -35
q-78 -287 -125 -502q0 -3 -1 -4q-5 -29 8.5 -45.5t29.5 -18.5l16 -2q-16 -43 -56 -38q-55 6 -74 5t-70 -9q-29 -5 -46 4.5t-27 35.5h5.5t13 2.5t14 8t9.5 15.5t-1 27q-87 169 -157 325q-80 -223 -135 -321q-10 -28 1.5 -43t27.5 -15l17 -1q-21 -49 -82 -39q-54 8 -77 9
t-82 -5q-46 -6 -62 37q3 0 7.5 0.5t16.5 4.5t20 10t13 19.5t2 31.5q-1 1 -1 3t-1 3l-56 231t-68 270q-9 33 -34.5 51.5t-46.5 20.5l-21 3q11 39 70 34q13 -1 35 -3t32.5 -2.5t29 3t40.5 12.5q36 16 61 -23q-3 0 -7.5 -1.5t-17.5 -6t-20 -13t-13.5 -24t0.5 -36.5
q54 -224 112 -437h9q11 33 32 82z" />
    <glyph glyph-name="x" unicode="x" horiz-adv-x="793" 
d="M519 587q31 50 19.5 69.5t-40.5 19.5h-29q8 20 31.5 36t52.5 13q64 -9 153 -1q19 2 30.5 -12.5t11.5 -32.5q-6 -1 -16 -3.5t-37.5 -21.5t-50.5 -50q-25 -33 -70 -92.5t-57 -74.5q-4 -5 -17.5 -25t-22.5 -32q7 -10 20 -30t20 -30q60 -77 176 -214q27 -31 48.5 -50.5
t29.5 -23.5l8 -4q-24 -52 -92 -41q-48 7 -75 7.5t-80 -5.5q-43 -5 -60 41q2 0 6 1t12 5.5t12 11t1.5 21t-13.5 32.5q-3 5 -9 14t-10.5 15.5t-8.5 12.5l-6 9v1q-1 1 -1 2q-8 12 -31.5 46.5t-36.5 53.5q-25 -34 -68.5 -93t-44.5 -60q-26 -40 -15 -54.5t38 -12.5l27 2
q-24 -53 -71 -45q-49 8 -160 2q-20 -1 -33.5 10.5t-12.5 27.5q1 0 3 -0.5t10 1.5t17 6.5t24 17.5t31 31q53 60 122 147q10 13 37 48t40 52q-91 133 -92 135q-7 9 -43.5 59.5t-57.5 78.5q-21 29 -42.5 48.5t-31.5 24.5l-11 5q22 52 91 41t155 -1q44 3 60 -41q-3 -1 -7.5 -2
t-14.5 -7t-15.5 -14t-5 -23t11.5 -34q48 -75 96 -147q69 91 95 129z" />
    <glyph glyph-name="y" unicode="y" horiz-adv-x="1024" 
d="M561 680q-2 0 -5 0.5t-12.5 1.5t-16.5 0t-17 -4t-13.5 -9t-6 -16t4.5 -26q52 -152 121 -305q119 173 151 247q15 46 3 68.5t-35 28.5l-23 5q22 53 69 47q70 -8 186 4q20 2 31 -8t11 -26q-3 0 -8.5 -1t-21.5 -6t-30 -12.5t-31 -24t-29 -37.5q-99 -175 -258 -423
q-88 -149 -209 -301t-207 -231q-68 -62 -151 -103.5t-151 -46.5t-102 39q-19 30 -18.5 53t14.5 38.5t30.5 25.5t30.5 14l14 5q0 -45 16.5 -65t42 -17.5t56.5 10.5q81 23 185 116.5t185 212.5q93 136 123 206q12 48 -9 98q-42 87 -92.5 206.5t-76.5 175.5q-16 32 -35 46.5
t-31 12.5l-11 -2q10 24 36 35.5t60 6.5q56 -7 80.5 -6.5t85.5 6.5q46 5 64 -39z" />
    <glyph glyph-name="z" unicode="z" 
d="M392 -7q-34 0 -148 2t-155 2q-6 0 -18.5 -0.5t-19.5 -0.5q-20 -1 -32 18.5t0 32.5q43 8 77 53q71 121 147 263.5t101 212.5q9 26 12 42q-55 4 -87 5q-7 0 -27 1t-28 1t-24.5 -1t-24.5 -4.5t-19 -9.5t-18 -16.5t-12 -25.5q-13 -44 -7.5 -71t18.5 -38l13 -11
q-61 -16 -89 68q-10 27 -15 69.5t-9.5 69.5t-14.5 32l21 32q35 -7 61 -9t66 -1t57 1h7q71 0 189 2l2 1q37 0 55 1q18 0 26 1q22 0 50 3q19 2 33 -13.5t14 -33.5q-4 -2 -12 -7t-29 -28.5t-39 -56.5q-39 -72 -85 -165t-94 -193t-65 -135q13 -1 44 -1q9 0 37 -1.5t45 -0.5
t40.5 4t39 13t23.5 26q17 40 11 65t-21 37l-16 11q63 16 94 -64q10 -25 15 -65t9.5 -65.5t15.5 -30.5l-22 -29q-36 6 -63.5 7.5t-69 1t-59.5 -0.5z" />
    <glyph glyph-name="braceleft" unicode="{" horiz-adv-x="337" 
d="M243 -190q-6 27 7 43q13 18 37 9t26 -29q3 -25 -30 -46q-32 -22 -59 5.5t-7 62.5q4 6 9 2q6 -4 2 -9q-4 -7 -5 -14q4 -21 20 -24zM275 -96q12 -14 5 -26q-5 -9 -22 -14q-30 -7 -50 8h-1q-1 1 -2 1q-18 26 -28 47q-8 15 -10 28q-2 16 8 20q22 10 33 11q26 3 33 -17
q2 -3 -1 -6q-2 -3 -4 -3q-10 -2 -18 -5l-3 -1l-1 -1h1q1 1 2 1h2q16 2 17 2q8 0 14 -3l2 -1l1 -1q1 0 1 -1t1 -2t3 -5q5 -6 6 -13q0 -6 -5 -8h-1q-17 -5 -31 -6q6 -6 23 -3h1q13 1 19 0h1q2 0 4 -2zM97 7q14 -4 46 3q15 3 26 11.5t15 15.5l4 7q12 -19 68 -19q30 1 53.5 -21
t7.5 -40q-21 -24 -44 -11q-18 12 -11 29q1 3 3 5q5 6 -17 7q-57 3 -115 -17q-53 -18 -79 13q-18 21 -4 36q3 3 8 5q21 7 29.5 1.5t8.5 -15.5zM233 43q-5 0 -12 1.5t-16.5 10t-3.5 21.5q36 84 46.5 185t1.5 162t-21 59q-6 -5 -1 -22.5t8 -60.5t4 -88.5t-11.5 -107.5
t-38.5 -118q-8 -18 -21 -29t-22 -12l-8 -2q36 103 49.5 200t7.5 168.5t-23 134.5t-39.5 105.5t-43.5 73t-33.5 44.5t-11.5 14q31 -2 68 -28.5t74.5 -71.5t64.5 -112.5t39.5 -146t-1 -178.5t-56.5 -202z" />
    <glyph glyph-name="bar" unicode="|" horiz-adv-x="204" 
d="M36 37l10 -2q20 4 23 58q14 314 3 515q-2 34 -10.5 54.5t-15.5 24.5l-8 4q4 19 11 26.5t22 3.5q44 -9 80 0q19 4 27 -3t10 -30h-10q-23 -7 -26 -75q-10 -225 6 -513q3 -70 26 -68l5 2q-10 -49 -41 -39q-26 7 -40 7t-43 -7q-11 -2 -17.5 7.5t-11.5 34.5z" />
    <glyph glyph-name="braceright" unicode="}" horiz-adv-x="398" 
d="M179 726q5 -30 -7 -43q-15 -17 -38 -9t-25 30q-3 24 31 46q33 21 58.5 -7.5t5.5 -62.5q-4 -6 -9 -2q-6 2 -2 8q3 4 5 14v1q-3 21 -19 25zM145 632q-13 14 -5 27q6 9 23 12q30 7 50 -8l2 -2q16 -23 28 -47q7 -16 9 -29q2 -14 -9 -19q-18 -10 -33 -11q-26 -2 -33 18
q0 4 1 6q2 3 5 3q8 1 18 5l1 1h-2q-16 -2 -18 -2q-7 0 -13 4q-2 0 -2 1q-1 0 -1 1q-2 0 -2 2q0 1 -1 2.5t-2 2.5q-3 4 -5 14q-2 5 4 7q1 0 2 1q20 4 31 5q-7 5 -23 4h-2q-12 -1 -18 0h-1q-2 0 -4 2zM320 525q-14 3 -46 -3q-15 -2 -26.5 -10t-15.5 -15l-4 -7q-11 19 -67 20
q-30 1 -53 23.5t-7 40.5q22 24 45 8q19 -13 7 -32q0 -1 -1 -2q-4 -5 15 -7q53 -5 114 13q2 0 4 1q53 17 79 -15q17 -21 2 -35q-3 -3 -8 -5q-21 -6 -29 -0.5t-9 15.5v10zM174 488q5 0 12.5 -1.5t17 -10t4.5 -21.5q-35 -85 -43 -185.5t2.5 -161.5t22.5 -60q5 6 0 23t-9 60
t-6.5 89t8.5 108.5t36 118.5q8 18 20.5 27t20.5 9h9q-34 -104 -45.5 -200.5t-3 -167.5t27 -133t42 -102.5t46 -70t35.5 -42.5t12 -13q-49 2 -108 55.5t-106.5 150t-51.5 231t57 297.5z" />
    <glyph glyph-name="asciitilde" unicode="~" horiz-adv-x="702" 
d="M42 137q1 3 2 8t0.5 18.5t-4.5 24.5t-15.5 22t-30.5 16q-1 2 -1.5 6t0.5 15.5t5 22.5t14.5 24.5t27.5 23.5q32 20 67.5 23.5t73 -9t68.5 -29.5t70 -44q44 -29 96.5 -40t95 -3t63.5 31q58 70 32 134.5t-108 81.5q-66 14 -132 -15q-36 -15 -57.5 -39.5t-24.5 -40.5l-4 -17
q-17 74 73 126q26 15 72 23t89 2q116 -17 151 -83q16 -31 22 -63.5t-8 -76t-54 -75.5q-46 -37 -113.5 -52t-131.5 -6q-90 13 -177 78q-117 86 -148 58q-4 -4 6 -12t25 -21t18 -27q8 -28 -7.5 -49t-34.5 -29z" />
    <glyph glyph-name="Oacute" unicode="&#xd3;" horiz-adv-x="759" 
d="M439 94q0 20 -10 43q-9 21 -36 59v1q-44 -58 -48 -96v-5q20 -5 40 -5q23 0 47 2q3 1 7 1zM165 255q1 -1 4 -9q7 -34 36 -48q29 -15 64 -7q38 8 56 31q21 24 14 60q-6 31 -34 45q-27 15 -65 10q-38 -7 -58 -27q-21 -20 -17 -49v-6zM439 281q0 -8 3 -17q8 -24 26 -43.5
t38 -25.5q24 -7 53.5 -5t37.5 12q37 39 21 74q-17 37 -65 54q-48 19 -83 2q-17 -10 -23 -24q-7 -12 -8 -27zM393 750q105 -3 184.5 -44t123.5 -113q43 -71 43 -159t-43 -179l-1 -1q0 -2 -1 -2q-4 -14 -4 -20q0 -9 4 -28q3 -16 3 -21q4 -29 -6 -56q-16 -36 -52 -49
q-9 -3 -29 -5q-7 -1 -25 -1h-2q-33 0 -39 -6q-10 -9 -10 -17q-1 -7 4 -22l1 -4q0 -2 1 -3q0 -2 0.5 -4t0.5 -4q3 -9 3 -18q2 -28 -19 -46q-30 -26 -130 -29q-40 -1 -62 1q-41 5 -68 23q-29 19 -34 49q-2 12 0 24q0 4 3 18v2q2 9 2 15q0 2 -1 3q-8 6 -38 9q-1 1 -5 1
q-28 3 -39 6q-27 8 -43 25q-14 17 -19 47q-3 14 -6 48q-1 17 -2 20q-3 34 -9 50l-1 1v2t-1 4t-2 4l-1 1q-1 2 -4 10q-62 170 10 299q82 143 295 168h8q3 1 10 1z" />
    <glyph glyph-name="oacute" unicode="&#xf3;" horiz-adv-x="531" 
d="M261 504v0h-2h2zM297 82q1 11 -7 31q-5 12 -25 42q-1 0 -1 1q-31 -43 -34 -69v-4q14 -3 29 -3q16 0 33 2h5zM101 198q1 -1 2 -3.5t1 -3.5q5 -25 25 -34q21 -11 47 -5q26 5 40 22q14 18 10 42q-6 24 -25 33q-18 10 -46 7q-26 -3 -42 -19q-15 -15 -12 -35v-4zM297 216
l3 -12q5 -17 18 -31.5t28 -18.5q17 -5 38 -3.5t27 8.5q26 28 15 54q-11 24 -47 39q-35 13 -59 0q-20 -9 -23 -36zM264 553q75 -3 132 -32.5t89 -80.5q65 -108 0 -243q0 -1 -0.5 -1t-0.5 -1q-4 -10 0 -34q0 -3 0.5 -6t1 -5t0.5 -4q3 -23 -5 -40q-11 -27 -37 -35
q-14 -5 -39 -5t-29 -4q-10 -10 -4 -28q4 -17 4 -24q2 -20 -13 -33q-21 -18 -93 -21q-32 0 -45 1q-30 5 -49 17q-21 13 -24 35q-2 11 2 30v2q2 11 1 12q-6 4 -27 7h-4q-19 3 -28 5q-19 5 -31 18q-10 12 -14 33q-3 12 -4 35q-1 9 -1 14q-3 26 -7 36q0 2 -1 2q0 2 -2 6v1
q-3 3 -3 7q-45 122 7 214q59 104 212 121h5q1 0 3.5 0.5t3.5 0.5z" />
    <glyph glyph-name="Sacute" unicode="&#x15a;" horiz-adv-x="744" 
d="M681 704q-2 -5 -5.5 -13t-19.5 -28.5t-37 -36t-58.5 -27t-82.5 -9.5q-35 2 -70.5 20t-57 30.5t-30.5 5.5q-14 -11 -15 -26.5t11 -33t29.5 -35.5t43 -37.5t49 -36t51.5 -33.5q76 -48 138 -112t85 -126q34 -85 6.5 -191.5t-113.5 -184.5q-57 -52 -130.5 -83t-147.5 -39.5
t-136.5 -6.5t-118.5 13q-78 14 -140.5 64.5t-92.5 134.5q-20 68 -7.5 135t45.5 107q118 146 305 141q-6 -1 -17.5 -3.5t-42.5 -13.5t-58.5 -26.5t-60 -44t-52.5 -64.5q-61 -104 -16 -197q36 -74 125.5 -112.5t207 -25t221.5 83.5q55 38 68.5 102.5t-22 138.5t-116.5 130
q-58 40 -98 72t-78 74.5t-52.5 80t-7.5 81.5t43 87q24 27 55.5 47t60 28t54 12.5t40.5 4.5h15q24 -42 81.5 -53.5t103.5 -2.5z" />
    <glyph glyph-name="sacute" unicode="&#x15b;" horiz-adv-x="401" 
d="M355 498q-1 -3 -3.5 -8.5t-13.5 -19.5t-24.5 -24t-39 -17.5t-55.5 -6.5q-23 1 -47 13t-38 20.5t-20 3.5q-9 -7 -10 -17.5t7 -22t19.5 -23.5t29 -25.5t32.5 -24t34 -22.5q50 -31 92 -74t57 -84q23 -57 4.5 -128t-75.5 -122q-50 -45 -120 -67.5t-127 -20t-108 9.5
q-52 10 -93.5 43.5t-61.5 89.5q-14 45 -5.5 89.5t30.5 71.5q79 98 203 94q-4 -1 -11.5 -2.5t-28.5 -9t-39 -18t-39.5 -29.5t-35.5 -43q-40 -69 -11 -131q24 -49 83.5 -74.5t138 -16.5t147.5 56q37 24 46.5 67.5t-14.5 92.5t-78 87q-49 33 -80.5 60.5t-56.5 61.5t-23.5 69.5
t31.5 70.5q25 29 62.5 44.5t62.5 16.5l26 1q15 -28 53.5 -35.5t68.5 -1.5z" />
    <glyph glyph-name="Omegatonos" unicode="&#x38f;" horiz-adv-x="740" 
d="M391 352q1 24 -30 67v1q-30 -41 -31 -63v-3q17 -6 57 -2h4zM212 458q0 -1 1 -3t1 -3q4 -22 23 -31q19 -10 43 -5q22 4 37 21q13 17 9 38q-4 20 -23 31q-17 9 -42 6q-25 -5 -38 -18t-12 -32q1 -1 1 -4zM391 475q3 -10 3 -11q10 -35 42 -46q16 -4 35 -2.5t25 7.5
q24 26 13 49q-9 23 -43 36q-32 11 -54 0q-18 -8 -21 -33zM501 77q3 -1 42 -13q24 -7 40 -10.5t28.5 -2t17 2.5t17 8.5l17.5 10.5q18 9 39.5 -2.5t22.5 -47.5q1 -19 -7 -30.5t-20 -20t-15 -13.5q-5 -8 -3 -30.5t-5 -40.5q-12 -27 -35.5 -30t-45.5 22q-11 13 -18 30t-17 28.5
t-34 21.5q-71 30 -149 59q-81 -37 -156 -79q-24 -13 -34 -28.5t-10 -27t-9 -23.5t-31 -20q-21 -6 -44.5 18t-16.5 54q5 18 -3 28t-20 13.5t-20 18t-3 41.5q4 22 21.5 30t41.5 2q7 -2 20 -5.5t19.5 -5t19 -1t25.5 5.5q31 11 67 26q-52 18 -69 22q-33 10 -54.5 1t-30.5 -17
t-45 7q-19 8 -18.5 43t26.5 50q16 10 18 22.5t-4 23.5t-0.5 27t27.5 31q20 12 37 5.5t30 -27.5l9 -18t10.5 -18.5t12.5 -13t22 -14.5q69 -33 157 -67q72 35 125 64q22 12 35.5 21t21.5 19t10 14t5.5 18.5t5.5 19.5q3 10 13.5 18.5t29 8t36.5 -17.5q14 -12 16.5 -26t0 -28.5
t-0.5 -20.5q2 -9 20.5 -23.5t24.5 -32.5q10 -27 -4 -46t-47 -17q-17 1 -36 8t-28 7.5t-41 -8.5q-24 -9 -57 -24zM361 784q141 -5 203 -104q59 -99 -1 -222q0 -2 -1 -2q-4 -12 0 -31q2 -8 2 -14q3 -20 -4 -37q-11 -25 -34 -32q-13 -4 -36 -4q-22 0 -26 -4q-10 -9 -4 -26
q4 -16 4 -21q0 -19 -13 -31q-19 -18 -85 -19q-29 0 -41 1q-25 3 -45 15q-19 13 -22 32q-1 13 2 28v1q2 10 1 12q-6 5 -25 6h-3l-26 4q-17 5 -28 17q-10 11 -13 31q-3 11 -4 31q-1 8 -1 13q-4 28 -6 33l-1 2q0 1 -1 3t-1 3q-1 1 -2 4l-1 3q-41 111 7 196q52 94 193 111h5
q2 0 4 0.5t3 0.5z" />
    <glyph glyph-name="Alpha" unicode="&#x391;" horiz-adv-x="910" 
d="M562 366q-32 85 -67 166q-8 18 -12.5 22.5t-11.5 -3.5t-18 -33q-1 -1 -1 -2q-3 -8 -17 -39.5t-22 -51.5q76 -22 149 -59zM591 45q2 0 5 -0.5t11.5 -1.5t15.5 0t16 4t12.5 9.5t6 16.5t-4.5 26q-27 85 -32 98q-112 90 -250 133q-73 -170 -79 -184q-11 -28 -8 -46.5t16 -28
t27 -14t25 -5.5h12q-19 -53 -68 -47q-116 13 -175 8q-19 -2 -30.5 9.5t-11.5 28.5q3 0 8 -0.5t19 2t27.5 8.5t29.5 20.5t28 36.5q51 91 110 229q-84 15 -146 2t-87.5 -55.5t2.5 -115.5q-7 1 -17.5 3t-34 15t-34.5 32q-10 17 -12 39t4.5 45.5t27 48t52.5 43.5q113 67 285 38
q11 26 30 75t22 57q0 3 1 4q8 38 4 62t-16 37t-25.5 18.5t-24.5 6.5h-10q13 31 55.5 47t88.5 7q38 -7 68.5 -28t52.5 -55.5t34 -58.5t27.5 -67t19.5 -52q37 -87 83.5 -208.5t71.5 -181.5q14 -33 32 -47.5t29 -13.5l11 2q-22 -52 -90 -42q-48 7 -73 7t-82 -6q-42 -5 -59 40z
" />
    <glyph glyph-name="Beta" unicode="&#x392;" horiz-adv-x="696" 
d="M244 200q11 -68 44.5 -103.5t84.5 -31.5q28 2 49 7.5t45 19t37 40.5t13 67q1 54 -18 96.5t-50 47.5q-16 3 -32 8q-46 12 -70 42.5t-12 70.5q0 2 4 -2.5t12 -13t18.5 -17t28 -13t37.5 -1.5q29 5 47 42t18 85q0 35 -13 59t-35.5 36t-42.5 16.5t-47 6.5q-53 4 -86.5 -35
t-39.5 -111v-4q-4 -143 8 -312zM11 38q2 -1 6 -1.5t14.5 0.5t18.5 5.5t16 18t10 34.5q11 114 13.5 252t-8.5 260q-4 33 -20.5 53.5t-30.5 24.5l-15 4q7 19 21 27t44 4q58 -8 190 1q4 0 6 1h20q109 9 173 4t117 -39q47 -31 64.5 -83.5t10 -98.5t-29.5 -76q-34 -45 -83 -66
q54 -19 98 -72q44 -48 33.5 -126.5t-71.5 -127.5q-24 -19 -49 -29.5t-66.5 -13.5t-63.5 -3.5t-89.5 3.5t-94.5 5h-3q-14 0 -40.5 1t-42 1.5t-39.5 -0.5t-47 -4q-45 -5 -62 41z" />
    <glyph glyph-name="Gamma" unicode="&#x393;" horiz-adv-x="681" 
d="M17 33q34 -8 62 12.5t39 91.5q19 126 19 373q-2 59 -5 85q-19 101 -91 84q0 2 0.5 5.5t5 11.5t12 13.5t22.5 9t35 1.5q48 -6 269 -3l201 10q-16 -38 11 -106q5 -12 14 -23t18.5 -18.5t18.5 -13.5t14 -10t4 -6q-2 -7 -13 -10.5t-21 -3.5l-9 -1q-6 1 -17 3.5t-40 18.5
t-53 41q-38 41 -97 52t-91 -20q-44 -46 -40 -341q3 -72 10 -154q3 -13 3 -24v-2q5 -40 24.5 -57.5t36.5 -15.5l17 2q-21 -48 -94 -38q-82 12 -141 6q-9 -1 -57 -7q-33 -2 -49.5 6.5t-16.5 18.5z" />
    <glyph glyph-name="Delta" unicode="&#x394;" horiz-adv-x="807" 
d="M315 563q0 2 1 3q8 38 4 62t-16 37t-25.5 18.5t-24.5 6.5h-10q13 32 55.5 47.5t88.5 6.5q38 -7 68.5 -28t52.5 -55.5t34 -58.5t27.5 -67t19.5 -52q36 -84 81.5 -204.5t73.5 -184.5q11 -24 22.5 -41.5t18.5 -22.5l6 -6q-4 -15 -20.5 -25.5t-44.5 -5.5q-49 8 -99 5
q-93 -6 -158 -5q-49 0 -247 7q-2 0 -3 -1q-107 0 -139 -1q-19 -1 -31.5 13t-12.5 32q1 -1 3.5 -1.5t11 1.5t17 7.5t20.5 19.5t24 36q97 176 202 457zM214 134q-10 -29 -6 -37t27 -10q233 -18 295 -7q44 8 39 27q-1 3 -3 8.5t-3 8.5q-72 223 -146 396q-8 18 -12.5 22.5
t-11.5 -3.5t-18 -33q-2 -2 -2 -3q-16 -37 -78.5 -180t-80.5 -189z" />
    <glyph glyph-name="Epsilon" unicode="&#x395;" horiz-adv-x="625" 
d="M610 711q-2 -5 -6 -13.5t-20 -30t-37.5 -37t-60.5 -27.5t-86 -10q-29 1 -57 13q-6 2 -17 7.5t-17 7t-16 2t-22.5 -3.5t-29.5 -13q-53 -29 -73 -132q11 -32 34 -54q29 -26 69.5 -34t66.5 11t13 63q-3 10 11 11q29 4 60 -18q21 -15 24 -36q9 -52 -27 -79t-95 -25
q-70 2 -168 44q0 -132 54 -199.5t115 -67.5h11q51 5 84 24.5t44 44.5t14 49t0 40l-4 17q9 -2 23.5 -7t40.5 -27.5t32 -54.5q6 -31 -13 -69.5t-54.5 -70.5t-89.5 -51t-110 -13q-10 0 -22 3q-133 23 -202 129q-45 69 -63 149.5t-11 152t34 134.5q31 71 70.5 113t109.5 71
q34 17 72.5 25.5t60.5 8.5l21 1q10 -19 33 -35l5 -2.5t4 -2.5q33 -18 81.5 -20t81.5 5z" />
    <glyph glyph-name="Zeta" unicode="&#x396;" 
d="M392 -7q-34 0 -148 2t-155 2q-6 0 -18.5 -0.5t-19.5 -0.5q-20 -1 -32 18.5t0 32.5q43 8 77 53q71 121 147 263.5t101 212.5q9 26 12 42q-55 4 -87 5q-7 0 -27 1t-28 1t-24.5 -1t-24.5 -4.5t-19 -9.5t-18 -16.5t-12 -25.5q-13 -44 -7.5 -71t18.5 -38l13 -11
q-61 -16 -89 68q-10 27 -15 69.5t-9.5 69.5t-14.5 32l21 32q35 -7 61 -9t66 -1t57 1h7q71 0 189 2l2 1q37 0 55 1q18 0 26 1q22 0 50 3q19 2 33 -13.5t14 -33.5q-4 -2 -12 -7t-29 -28.5t-39 -56.5q-39 -72 -85 -165t-94 -193t-65 -135q13 -1 44 -1q9 0 37 -1.5t45 -0.5
t40.5 4t39 13t23.5 26q17 40 11 65t-21 37l-16 11q63 16 94 -64q10 -25 15 -65t9.5 -65.5t15.5 -30.5l-22 -29q-36 6 -63.5 7.5t-69 1t-59.5 -0.5z" />
    <glyph glyph-name="Eta" unicode="&#x397;" horiz-adv-x="894" 
d="M423 32q2 -1 6 -1.5t14.5 0t19 5.5t16 18.5t9.5 34.5q9 91 14 234q-132 -36 -249 -112q5 -70 9 -114q4 -37 20 -53.5t30 -13.5l13 2q-21 -50 -82 -40q-54 8 -77.5 9t-83.5 -5q-46 -5 -62 38q2 -1 6 -1.5t14.5 0.5t18.5 5.5t16 18t10 34.5q11 115 13.5 254t-8.5 263
q-4 34 -20.5 54.5t-31.5 24.5l-14 4q7 19 21 27t45 4q78 -10 159 -1q37 5 54 -2.5t20 -29.5q-3 1 -7 1.5t-15.5 -2t-20.5 -9t-17.5 -24t-11.5 -42.5q-9 -110 -4 -275q126 76 256 98q0 102 -9 174q-4 34 -20.5 55t-31.5 25l-14 4q7 20 21 27.5t44 3.5q78 -10 160 -1
q37 5 54 -2.5t20 -29.5q-3 1 -7 1.5t-15.5 -2t-20.5 -9.5t-17.5 -24t-11.5 -43q-6 -71 -6 -171q82 -8 144 -43q43 -25 65.5 -59.5t21 -63.5t-13.5 -53q-12 -19 -33.5 -31.5t-37.5 -15.5l-16 -3q32 80 -5 123t-123 45q4 -135 15 -247q4 -38 20 -54.5t30 -14.5l13 2
q-11 -26 -30 -35.5t-52 -4.5q-55 9 -78.5 9.5t-82.5 -5.5q-46 -5 -63 39z" />
    <glyph glyph-name="Theta" unicode="&#x398;" horiz-adv-x="697" 
d="M12 417q-113 10 -168.5 -35t-18.5 -140q-7 1 -17.5 3t-33.5 15t-34 32q-11 24 -13 53t20.5 63.5t64.5 59.5q90 54 224 45q61 164 222 210q45 14 92 14q140 -3 230.5 -100.5t100.5 -234.5q5 -65 -7 -128.5t-41 -122t-85 -103t-131 -62.5q-44 -11 -83 -10
q-140 5 -229 103.5t-97 236.5q-3 52 4 101zM187 483q182 -56 323 -190q2 -3 4 -7q7 42 7 91q0 92 -31.5 162.5t-86.5 98.5q-29 14 -71 12q-47 -3 -85.5 -48.5t-59.5 -118.5zM170 379v-36q1 -106 39 -183t104 -96q15 -3 31 -3q84 1 134 102q-12 12 -18 19q-116 131 -290 197z
" />
    <glyph glyph-name="Iota" unicode="&#x399;" horiz-adv-x="355" 
d="M36 37q2 -1 6 -1.5t14.5 0t19 5t16 18t9.5 34.5q11 113 14 254t-8 261q-4 34 -20.5 54.5t-30.5 24.5l-15 4q7 19 21 26.5t44 3.5q87 -9 159 0q37 5 54 -3t19 -30q-3 1 -7 1.5t-15 -2t-20 -8.5t-17.5 -23.5t-11.5 -42.5q-8 -119 -4 -261t15 -252q4 -37 20 -53.5t30 -14.5
l13 2q-21 -49 -82 -39q-53 7 -80.5 7t-85.5 -7q-22 -2 -34.5 7.5t-22.5 34.5z" />
    <glyph glyph-name="Kappa" unicode="&#x39a;" horiz-adv-x="1638" 
d="M470 600q22 28 14.5 47t-28.5 29l-20 9q7 19 21 27t45 4q69 -9 191 3q20 2 31.5 -8.5t11.5 -28.5q-8 -1 -21 -4.5t-49 -23t-65 -48.5q-67 -64 -152 -139.5t-119 -108.5q20 -59 82 -88q55 -25 127 -84.5t123.5 -112t151.5 -158.5t150 -156q117 -119 291 -169
q145 -43 232 -10q83 31 52 116q-2 7 -5 14q54 -5 78 -40q10 -20 11 -43.5t-18.5 -52t-57.5 -48.5q-80 -42 -187 -33t-221 55t-220 121q-182 128 -356.5 289t-265.5 314q-23 40 -55 74q3 -143 15 -252q4 -37 19.5 -53.5t29.5 -14.5l14 2q-21 -50 -82 -40q-54 7 -79 7t-83 -7
q-44 -4 -63 42q2 -1 6 -1.5t14.5 0.5t19 5.5t16 18t9.5 34.5q11 114 14 256.5t-8 263.5q-4 34 -20.5 54.5t-31.5 24.5l-15 4q7 20 21 27.5t45 3.5q70 -9 191 3q21 2 32.5 -8t11.5 -28q-3 1 -7 1.5t-15.5 -2t-20.5 -9t-17.5 -24t-11.5 -42.5q-8 -85 -6 -205q6 5 46.5 36
t64.5 49.5t59.5 50t59.5 57.5z" />
    <glyph glyph-name="Lambda" unicode="&#x39b;" horiz-adv-x="832" 
d="M513 33q2 0 5 -0.5t11.5 -1.5t15.5 0t16 4t12.5 9.5t6 16.5t-4.5 26q-80 251 -158 433q-8 18 -12.5 22.5t-11.5 -3.5t-18 -33q-1 0 -1 -2q-19 -45 -80.5 -185.5t-79.5 -184.5q-11 -28 -8 -46.5t16 -28t27 -13.5t25 -4l12 -1q-19 -54 -68 -48q-109 15 -175 8
q-19 -2 -30.5 9.5t-11.5 28.5q3 0 8 -0.5t19 2t27.5 8.5t29.5 20.5t28 36.5q97 176 202 457q0 2 1 3q8 38 4 62t-16 37t-25.5 18.5t-24.5 6.5h-10q13 32 55.5 47.5t88.5 6.5q38 -7 68.5 -28t52.5 -55.5t34 -58.5t27.5 -67t19.5 -52q38 -89 84.5 -210.5t70.5 -178.5
q14 -33 32 -48t29 -14l11 2q-22 -52 -90 -41q-52 7 -75 6.5t-80 -6.5q-42 -5 -59 40z" />
    <glyph glyph-name="Mu" unicode="&#x39c;" horiz-adv-x="893" 
d="M606 33q1 1 9 0t20.5 3t24.5 9.5t21 20.5t10 36q3 117 -4 441q-15 -37 -36 -87q-41 -96 -94 -202t-63 -134q-4 -12 -24 -16.5t-38 -3.5l-17 2q-10 1 -18 7q-11 5 -14 14q-9 27 -61.5 133t-93.5 203q-7 15 -13.5 31.5t-13.5 33t-10 24.5q-1 -120 2 -444q0 -34 21.5 -51.5
t42.5 -17.5h21q-10 -26 -27 -35.5t-46 -4.5q-48 8 -68.5 9t-72.5 -5q-45 -5 -59 35q1 1 9 0t20.5 2.5t24.5 9.5t21 21t10 36q2 53 -5 514q0 26 -7.5 43.5t-18 23.5t-21 8.5t-18.5 1.5l-7 -2q7 20 18.5 27.5t39.5 3.5q36 -5 139 -1q25 1 47 -31q27 -34 55 -97.5t70.5 -179.5
t57.5 -153q13 29 42 95t45.5 103t39.5 87t41 85t33 58q9 15 11 18h1v1q16 16 51 13q12 -1 29 -2t25 -1t22 0.5t31 2.5q33 5 48 -2.5t17 -29.5l-9 3t-20 1.5t-25 -7.5t-20.5 -28t-9.5 -55q-3 -194 2 -500q0 -22 9 -37t21 -21t24.5 -9t21.5 -2h8q-10 -26 -26.5 -35.5
t-45.5 -4.5q-50 8 -68.5 9t-72.5 -5q-45 -5 -59 35z" />
    <glyph glyph-name="Nu" unicode="&#x39d;" horiz-adv-x="781" 
d="M50 35q1 1 9 0t20.5 2.5t24.5 9t21 20.5t10 36q2 54 -5 513q0 26 -7.5 43.5t-18 24t-21 9t-17.5 1.5l-8 -2q7 19 18.5 26.5t38.5 3.5q77 -9 140 0q8 1 21 1q27 5 37 -1q23 -14 51.5 -82.5t70 -174.5t80.5 -176q15 -27 38 -73q0 57 -6 389q0 42 -20 62.5t-39 20.5h-20
q7 19 19 27t39 4q68 -10 140 -1q72 10 76 -28q-3 1 -8.5 2.5t-18.5 0t-23.5 -9t-19 -30t-8.5 -56.5q-2 -301 4 -502q1 -37 26 -47q31 -5 67 17q6 4 6 1l-6 -18q-16 -43 -47 -65.5t-64.5 -23t-64 8.5t-51.5 25q-27 20 -63.5 87.5t-69 143.5t-78.5 165t-88 141q0 -262 3 -426
q0 -22 9 -37t21 -21t24.5 -9t21.5 -3l8 1q-19 -49 -72 -39q-48 8 -68.5 9t-72.5 -5q-46 -5 -59 35z" />
    <glyph glyph-name="Xi" unicode="&#x39e;" horiz-adv-x="637" 
d="M468 581q-159 12 -307 2q-24 -1 -39 -11.5t-21.5 -21.5t-19.5 -19t-34 -5q-19 2 -28 34t7 57q11 15 8.5 27t-10.5 20.5t-8.5 24.5t13.5 39q12 18 28 17.5t33 -16.5q36 -34 78 -39q119 -14 285 -6q12 1 22 1.5t18 2.5t13.5 2.5t11.5 4.5t8.5 4.5t7.5 6t6 6.5t7 9t7 9
q6 9 17.5 12t25.5 -5.5t22 -31.5q5 -23 2.5 -32.5t-10 -23t-8.5 -19.5q-1 -9 7.5 -30t7.5 -39q-2 -29 -20 -40t-44 5q-12 8 -24.5 22t-25.5 22.5t-36 10.5zM424 319q-120 9 -231 1q-28 -2 -51 -19.5t-48 -14.5q-15 2 -22.5 27.5t5.5 45.5q12 16 -1 38t3 51q20 30 49 1
q31 -29 59 -33q127 -15 233 -8q18 1 29 2.5t20 7.5t11.5 7.5t10.5 12t9 12.5q5 6 14 8.5t20.5 -4.5t17.5 -25q4 -18 2.5 -25.5t-7.5 -18.5t-7 -16q-1 -7 6 -23.5t5 -31.5q-2 -23 -16 -32t-35 4q-5 3 -14 9.5t-13 9t-12 6.5t-16.5 5.5t-20.5 2.5zM472 10q-160 12 -324 1
q-24 -2 -37.5 -11.5t-17.5 -20t-15.5 -17t-32.5 -3.5q-19 2 -28 33.5t7 56.5q11 15 8.5 27t-10.5 20.5t-8.5 24.5t13.5 39q12 18 28 17.5t33 -15.5q5 -5 13.5 -14t13 -13.5t14.5 -9t22 -5.5q137 -17 305 -6q22 1 36 3t24 8t13 8.5t11.5 14t11.5 15.5q6 8 17.5 11t25.5 -5.5
t22 -31.5q5 -22 3 -31.5t-10 -23.5t-9 -20q-1 -8 7.5 -29.5t7.5 -39.5q-2 -29 -20 -40t-44 5q-13 8 -23.5 21.5t-22 21t-34.5 9.5z" />
    <glyph glyph-name="Omicron" unicode="&#x39f;" horiz-adv-x="705" 
d="M605 664q-10 -9 -26.5 -22t-64.5 -31.5t-90 -10.5q-18 3 -35 9.5t-25.5 11.5t-21 13.5t-14.5 9.5q-8 -5 -19 -18q-36 -44 -61 -109.5t-25 -139.5q0 -127 49 -194t109 -74q2 0 4 -0.5t3 -0.5q72 -3 121.5 40.5t83.5 131.5q27 80 24.5 144.5t-18.5 105.5l-16 40q4 -3 11 -9
t24.5 -26t31.5 -43t26 -59t14 -75q8 -186 -132 -308q-38 -33 -91 -48q-58 -20 -118 -10q-132 25 -203 130q-68 105 -77 228.5t37 208.5q62 125 211 178q3 1 8 2t7 2q25 8 51 11.5t39 3.5h14q24 -43 66 -66t72 -24z" />
    <glyph glyph-name="Pi" unicode="&#x3a0;" horiz-adv-x="733" 
d="M1 40q2 -1 6 -1.5t13.5 0t17.5 5t15.5 18t9.5 34.5q10 113 13 254t-8 261q-4 34 -19.5 54.5t-29.5 24.5l-14 4q8 19 20.5 26.5t41.5 3.5q33 -4 132 -4q1 0 5.5 0.5t6.5 0.5q119 1 310 -1h8q71 -2 117 4q36 4 52 -3.5t18 -29.5q-2 1 -6.5 1.5t-15 -2t-19 -8.5t-17 -23.5
t-10.5 -42.5q-8 -116 -4 -260.5t15 -252.5q4 -37 18.5 -53.5t27.5 -14.5l13 2q-10 -26 -28 -35t-50 -4q-53 7 -76.5 6.5t-81.5 -6.5q-20 -2 -32.5 7.5t-21.5 34.5q2 -1 6 -1.5t13.5 0t17.5 5t15.5 18t9.5 34.5q10 113 13 254t-8 261q0 1 -0.5 5t-0.5 5q-34 0 -130 1.5
t-143 0.5q0 -5 -1 -7q-8 -116 -4 -260.5t15 -252.5q4 -37 18.5 -53.5t27.5 -14.5l13 2q-10 -26 -28 -35t-50 -4q-52 7 -75.5 6.5t-81.5 -6.5q-20 -2 -32.5 7.5t-21.5 34.5z" />
    <glyph glyph-name="Rho" unicode="&#x3a1;" horiz-adv-x="723" 
d="M50 33q2 -1 6 -1.5t14.5 0t19 5.5t16 18.5t9.5 34.5q11 117 14 255t-8 263q-4 34 -21 54.5t-32 24.5l-14 4q7 20 21 27.5t45 3.5q56 -7 199 2q11 1 24 1q108 8 171.5 3t116.5 -39q41 -27 60.5 -70.5t18 -84.5t-16.5 -77q-12 -34 -47 -74q-69 -78 -217 -64
q-130 13 -116 106q5 34 48 50q35 12 42 -1q2 -2 1 -6q-11 -38 5.5 -57t48.5 -19q21 2 30 4q5 2 13 4q29 14 38.5 56t4.5 89q-4 35 -17.5 59t-35.5 36t-41 17t-45 7q-54 4 -88 -35.5t-40 -112.5v-4q-4 -205 16 -416q4 -37 19.5 -53.5t29.5 -14.5l14 2q-21 -49 -82 -39
q-57 7 -78.5 7t-83.5 -7q-45 -5 -62 42z" />
    <glyph glyph-name="Sigma" unicode="&#x3a3;" 
d="M230 620q36 -45 67 -95.5t53.5 -94t24.5 -46.5q1 -1 1 -2q4 -13 -48.5 -118t-99.5 -164q-7 -8 -9 -13q46 -2 94 -2q9 0 37 -1.5t45 -0.5t40.5 4t39 13t23.5 26q17 40 11 65t-21 37l-16 11q63 16 94 -64q10 -25 15 -65t9.5 -65.5t15.5 -30.5l-22 -29q-36 6 -63.5 7.5
t-69 1t-59.5 -0.5q-34 0 -148 2t-155 2q-6 0 -18.5 -0.5t-19.5 -0.5q-20 -1 -32 18.5t0 32.5q2 0 6.5 1.5t16 7t22.5 13t24.5 22.5t23.5 33q25 46 45 78.5t30.5 47t37 46.5t42.5 53q-13 17 -22 29.5t-17 23.5t-15.5 22t-12.5 18t-12.5 20t-11 19t-12.5 23t-13 24.5t-17 31.5
t-20 36q-16 29 -39 48t-38 24l-15 4q-12 13 0 32.5t32 18.5q7 -1 21.5 -1t21.5 -1h85h32h14h158h49h45.5t43 2t54.5 7l23 -30q-11 -5 -16 -30.5t-10 -65.5t-15 -65q-31 -80 -93 -64q3 1 7 4t13 12.5t14 21.5t3.5 32t-12.5 43q-8 16 -23 26t-39.5 13.5t-39.5 4t-46.5 -1
t-36.5 -1.5q-63 0 -84 1q4 -6 7 -10z" />
    <glyph glyph-name="Tau" unicode="&#x3a4;" horiz-adv-x="665" 
d="M176 34q2 -1 6 -1.5t14.5 0t18.5 5t16 18t10 34.5q11 115 13.5 253.5t-8.5 261.5v2q-7 23 -34 29.5t-57 -10t-42 -53.5q-13 -45 -7.5 -72.5t18.5 -38.5l14 -11q-61 -16 -91 69q-10 27 -15 70t-9.5 70.5t-14.5 32.5l22 32q35 -7 61.5 -9t66.5 -1t58 1h5q19 0 87.5 1.5
t95.5 0.5q16 0 36 -2q15 0 46.5 -0.5t46 -0.5t41 2.5t54.5 7.5l23 -32q-11 -5 -16 -32.5t-10 -70.5t-15 -70q-31 -85 -95 -69q2 1 6 3.5t12 13t13 23t4.5 34.5t-9.5 48q-13 37 -44 54t-58 10.5t-32 -29.5q-8 -119 -4 -260t15 -251q4 -37 19.5 -53.5t28.5 -14.5l14 2
q-20 -49 -82 -39q-54 8 -77.5 9t-82.5 -5q-46 -6 -62 38z" />
    <glyph glyph-name="Upsilon" unicode="&#x3a5;" horiz-adv-x="1026" 
d="M564 693q-2 0 -5 0.5t-12.5 1.5t-16.5 -0.5t-17 -4t-13.5 -9t-6.5 -16.5t4 -26q57 -158 122 -305q122 179 151 248q15 46 3 68.5t-35 27.5l-23 6q21 52 69 46q70 -8 186 4q20 2 31 -7.5t11 -25.5q-3 0 -8.5 -1t-21.5 -6t-30 -12.5t-31 -24t-29 -37.5q-69 -122 -258 -424
q-87 -148 -208.5 -299.5t-207.5 -231.5q-68 -63 -151 -104.5t-151 -46.5t-102 39q-19 30 -18.5 53t14.5 39t30.5 25.5t30.5 13.5l14 5q0 -44 16.5 -64t42 -17.5t56.5 9.5q80 23 185 117t185 213q93 139 123 206q13 50 -10 97q-40 84 -89.5 203t-78.5 179q-16 32 -35.5 46.5
t-31.5 13.5l-11 -2q23 51 97 41q57 -6 80 -6t86 7q46 5 64 -39z" />
    <glyph glyph-name="Phi" unicode="&#x3a6;" horiz-adv-x="798" 
d="M295 36q2 -1 6 -1.5t14.5 0t19 5t16.5 18t10 34.5q11 116 13.5 255.5t-8.5 263.5q-2 14 -4 21q-20 36 -53 33q-29 -4 -40.5 -26.5t-16.5 -92.5q-8 -114 36 -127q18 -5 30 -0.5t18 8t6 0.5q0 -24 -14.5 -45t-38 -30.5t-50 -8.5t-53.5 23t-45 63q-14 30 -19 77t6 100t41 84
q35 36 73 40.5t113 -4.5q6 0 8 -1h2q58 -7 200 2q5 0 12 0.5t10 0.5q59 4 89 -1.5t59 -34.5q30 -31 41.5 -84t6.5 -100t-19 -78q-24 -50 -58 -69.5t-63.5 -11t-50.5 32.5t-22 54q0 3 5.5 -0.5t17 -8.5t28.5 0q37 10 29 128q-5 70 -17 89t-42 22q-41 6 -63 -49v-1
q-9 -116 -5 -262.5t16 -254.5q4 -37 19.5 -53.5t29.5 -14.5l14 2q-11 -26 -30 -35.5t-53 -4.5q-56 8 -78 8t-83 -7q-45 -5 -63 42z" />
    <glyph glyph-name="Chi" unicode="&#x3a7;" horiz-adv-x="907" 
d="M469 289q-15 -14 -116 -112q-28 -28 -40 -50.5t-13 -34t3 -35.5t5 -36q1 -15 -9.5 -29.5t-32 -19.5t-55.5 14q-24 13 -34 31.5t-13.5 38.5t-8.5 28q-7 12 -37 26.5t-46 36.5q-27 33 -17.5 64t53.5 37q22 3 50.5 -3t53 -4.5t50.5 21.5q59 44 121 97q-73 56 -134 98
q-29 20 -57.5 21t-47 -7.5t-42 -6.5t-44.5 24q-20 18 -1 65t60 59q26 8 34.5 24.5t6.5 33t12.5 36.5t50.5 33q30 11 49 -5.5t24 -49.5q1 -9 2 -40.5t7 -52.5t22 -37q63 -63 140 -124q80 69 141 131q25 25 30.5 52.5t0.5 47.5t1.5 42.5t32.5 39.5q23 15 64.5 -11.5
t46.5 -68.5q2 -22 12.5 -33t23.5 -14.5t27 -8t26 -21.5t17 -48q5 -32 -14 -48t-53 -14q-8 0 -40 5t-53.5 3t-40.5 -16q-62 -42 -135 -105q25 -19 69 -49.5t51 -35.5q32 -23 57 -31t36 -7t33.5 9.5t34.5 11.5q27 6 48 -17t4 -72q-8 -25 -24 -38.5t-35.5 -21t-26.5 -13.5
q-10 -8 -19 -40.5t-28 -52.5q-27 -32 -59.5 -28.5t-46.5 45.5q-11 32 -7.5 53.5t-2.5 48t-31 48.5q-66 60 -136 116z" />
    <glyph glyph-name="Psi" unicode="&#x3a8;" horiz-adv-x="652" 
d="M163 41q2 -1 6 -1.5t14.5 0t18.5 5t16 18t10 34.5q9 102 12 211q-6 -3 -14 -3q-75 -8 -112.5 -4t-72.5 34q-29 25 -38 69.5t-4 81t15 66.5q35 106 77 149q12 11 12 4q-28 -174 16 -255q33 -62 102 -62h1q15 0 17 6q2 5 2 28q0 25 1 44q-2 84 -9 143q-4 34 -20.5 54.5
t-30.5 24.5l-15 4q7 19 21 26.5t45 3.5q74 -8 197 2q20 2 28 -7.5t6 -26.5q-3 1 -7 1.5t-15.5 -2t-20.5 -9t-17.5 -24t-10.5 -42.5q-6 -59 -6 -180q2 -26 10 -35.5t25 -9.5q53 0 93 81q40 79 14 237q0 4 3 3q15 -4 44 -56q24 -43 44 -101q11 -31 15.5 -67t-5 -82t-39.5 -72
q-36 -30 -75.5 -34t-117.5 3q-3 1 -8 1q6 -118 14 -198q4 -37 19.5 -53.5t28.5 -14.5l14 2q-11 -25 -30 -34.5t-51 -4.5q-49 7 -75 7t-85 -6q-43 -6 -62 41z" />
    <glyph glyph-name="Omega" unicode="&#x3a9;" horiz-adv-x="640" 
d="M209 109q1 12 0 24q-3 29 -25 59t-52 49q-69 45 -88 78q-54 86 -46 186q8 95 76.5 162.5t186.5 78.5q28 5 49 4q138 -2 215.5 -69t86.5 -170q12 -147 -57 -211q-33 -32 -74 -61q-74 -56 -79 -104q-1 -8 -1 -25v-4q1 -30 54 -31.5t64 26.5q12 34 7 54t-18 28l-12 8
q62 10 91 -51q10 -21 14.5 -52.5t9 -51.5t14.5 -24l-22 -23q-36 5 -82 7t-82.5 1t-77.5 0h-2q-34 -2 -36 26q-3 22 -0.5 90t8.5 106q6 37 16.5 56.5t33 37.5t26.5 23q43 47 43 144q0 81 -31 136.5t-87 65.5q-70 9 -115.5 -36.5t-54.5 -126.5q0 -5 -0.5 -14t-1.5 -14v-8
q0 -94 50 -160q6 -8 26 -24t32.5 -37t17.5 -57q4 -25 4.5 -61t-1 -76.5t-1.5 -46.5q0 -8 -7 -13.5t-18.5 -7t-21 -1.5t-22.5 0.5t-15 0.5h-6q-120 5 -193 -5l-23 25q12 4 17 25.5t11 55t16 55.5q32 65 97 53l-6 -3t-12.5 -10t-13.5 -18t-5 -27.5t9 -37.5q14 -30 62 -34
t51 26q1 2 1 4z" />
    <glyph glyph-name="alpha" unicode="&#x3b1;" horiz-adv-x="818" 
d="M386 167q-28 2 -47 16t-25.5 32.5t-6 37.5t7.5 32q17 28 46.5 42.5t59 13.5t57.5 -7q-43 113 -76 190q-8 18 -12.5 22.5t-11.5 -3.5t-18 -33l-2 -2q-21 -52 -82.5 -191.5t-77.5 -179.5q-11 -28 -7.5 -46.5t16.5 -28t27 -14t26 -4.5l11 -1q-21 -54 -69 -48q-109 15 -175 8
q-19 -2 -31 9.5t-12 29.5q3 0 8 -0.5t19.5 2t28 8.5t29.5 20.5t28 36.5q92 168 203 458v3q9 38 5 62.5t-16.5 37.5t-26 18.5t-24.5 5.5l-10 1q14 32 56.5 47.5t88.5 6.5q32 -6 60 -24t46 -38t35 -51t25.5 -52.5t20 -53t16.5 -43.5q38 -88 84 -209.5t72 -181.5q14 -33 32 -48
t29 -13l11 2q-22 -53 -91 -42q-54 7 -75 7t-80 -7q-43 -5 -60 40q2 0 5 -0.5t11.5 -1.5t15.5 0t16 4t12.5 9.5t6 17t-3.5 26.5q-4 12 -12 37.5t-13 39.5q-24 66 -40.5 84.5t-57.5 16.5q-36 -1 -49 -26.5t-8 -49.5z" />
    <glyph glyph-name="beta" unicode="&#x3b2;" horiz-adv-x="696" 
d="M469 333q-1 0 -4 -0.5t-4 -1.5q-5 -1 -13 -3q-105 -27 -210 -27q3 -58 6 -101q11 -68 44.5 -103.5t84.5 -31.5q28 2 49 7.5t45 19t37 40.5t13 67q0 32 -0.5 52t-5 43t-15 33t-27.5 6zM422 404q1 0 2.5 1t2.5 2q31 12 52 51.5t21 85.5q0 35 -13 59t-35.5 36t-42.5 16.5
t-47 6.5q-53 4 -86.5 -35t-39.5 -111v-4q-2 -68 0 -141q92 2 186 33zM11 38q2 -1 6 -1.5t14.5 0.5t18.5 5.5t16 18t10 34.5q9 98 13 220q-185 38 -267 153q-29 40 -35 80.5t5.5 68.5t33.5 44q18 13 43 16t41 -1l15 -3q-83 -91 -30 -173.5t195 -115.5q2 131 -9 223
q-4 33 -20.5 53.5t-30.5 24.5l-15 4q7 19 21 27t44 4q58 -8 190 1q4 0 6 1h20q109 9 173 4t117 -39q47 -31 64.5 -83.5t10 -98.5t-29.5 -76q-35 -47 -83 -66q54 -18 98 -72q44 -48 33.5 -126.5t-71.5 -127.5q-24 -19 -49 -29.5t-66.5 -13.5t-63.5 -3.5t-89.5 3.5t-94.5 5h-3
q-14 0 -40.5 1t-42 1.5t-39.5 -0.5t-47 -4q-45 -5 -62 41z" />
    <glyph glyph-name="gamma" unicode="&#x3b3;" horiz-adv-x="681" 
d="M17 33q34 -8 62 12.5t39 91.5q19 126 19 373q-2 59 -5 85q-19 101 -91 84q0 2 0.5 5.5t5 11.5t12 13.5t22.5 9t35 1.5q48 -6 269 -3l201 10q-16 -38 11 -106q5 -12 14 -23t18.5 -18.5t18.5 -13.5t14 -10t4 -6q-2 -7 -13 -10.5t-21 -3.5l-9 -1q-6 1 -17 3.5t-40 18.5
t-53 41q-38 41 -97 52t-91 -20q-44 -46 -40 -341q3 -72 10 -154q3 -13 3 -24v-2q5 -40 24.5 -57.5t36.5 -15.5l17 2q-21 -48 -94 -38q-82 12 -141 6q-9 -1 -57 -7q-33 -2 -49.5 6.5t-16.5 18.5z" />
    <glyph glyph-name="delta" unicode="&#x3b4;" horiz-adv-x="807" 
d="M315 563q0 2 1 3q8 38 4 62t-16 37t-25.5 18.5t-24.5 6.5h-10q13 32 55.5 47.5t88.5 6.5q38 -7 68.5 -28t52.5 -55.5t34 -58.5t27.5 -67t19.5 -52q36 -84 81.5 -204.5t73.5 -184.5q11 -24 22.5 -41.5t18.5 -22.5l6 -6q-4 -15 -20.5 -25.5t-44.5 -5.5q-49 8 -99 5
q-93 -6 -158 -5q-49 0 -247 7q-2 0 -3 -1q-107 0 -139 -1q-19 -1 -31.5 13t-12.5 32q1 -1 3.5 -1.5t11 1.5t17 7.5t20.5 19.5t24 36q97 176 202 457zM214 134q-10 -29 -6 -37t27 -10q233 -18 295 -7q44 8 39 27q-1 3 -3 8.5t-3 8.5q-72 223 -146 396q-8 18 -12.5 22.5
t-11.5 -3.5t-18 -33q-2 -2 -2 -3q-16 -37 -78.5 -180t-80.5 -189z" />
    <glyph glyph-name="epsilon" unicode="&#x3b5;" horiz-adv-x="625" 
d="M610 711q-2 -5 -6 -13.5t-20 -30t-37.5 -37t-60.5 -27.5t-86 -10q-29 1 -57 13q-6 2 -17 7.5t-17 7t-16 2t-22.5 -3.5t-29.5 -13q-53 -29 -73 -132q11 -32 34 -54q29 -26 69.5 -34t66.5 11t13 63q-3 10 11 11q29 4 60 -18q21 -15 24 -36q9 -52 -27 -79t-95 -25
q-70 2 -168 44q0 -132 54 -199.5t115 -67.5h11q51 5 84 24.5t44 44.5t14 49t0 40l-4 17q9 -2 23.5 -7t40.5 -27.5t32 -54.5q6 -31 -13 -69.5t-54.5 -70.5t-89.5 -51t-110 -13q-10 0 -22 3q-133 23 -202 129q-45 69 -63 149.5t-11 152t34 134.5q31 71 70.5 113t109.5 71
q34 17 72.5 25.5t60.5 8.5l21 1q10 -19 33 -35l5 -2.5t4 -2.5q33 -18 81.5 -20t81.5 5z" />
    <glyph glyph-name="zeta" unicode="&#x3b6;" 
d="M392 -7q-34 0 -148 2t-155 2q-6 0 -18.5 -0.5t-19.5 -0.5q-20 -1 -32 18.5t0 32.5q43 8 77 53q71 121 147 263.5t101 212.5q9 26 12 42q-55 4 -87 5q-7 0 -27 1t-28 1t-24.5 -1t-24.5 -4.5t-19 -9.5t-18 -16.5t-12 -25.5q-13 -44 -7.5 -71t18.5 -38l13 -11
q-61 -16 -89 68q-10 27 -15 69.5t-9.5 69.5t-14.5 32l21 32q35 -7 61 -9t66 -1t57 1h7q71 0 189 2l2 1q37 0 55 1q18 0 26 1q22 0 50 3q19 2 33 -13.5t14 -33.5q-4 -2 -12 -7t-29 -28.5t-39 -56.5q-39 -72 -85 -165t-94 -193t-65 -135q13 -1 44 -1q9 0 37 -1.5t45 -0.5
t40.5 4t39 13t23.5 26q17 40 11 65t-21 37l-16 11q63 16 94 -64q10 -25 15 -65t9.5 -65.5t15.5 -30.5l-22 -29q-36 6 -63.5 7.5t-69 1t-59.5 -0.5z" />
    <glyph glyph-name="eta" unicode="&#x3b7;" horiz-adv-x="894" 
d="M423 32q2 -1 6 -1.5t14.5 0t19 5.5t16 18.5t9.5 34.5q9 91 14 234q-132 -36 -249 -112q5 -70 9 -114q4 -37 20 -53.5t30 -13.5l13 2q-21 -50 -82 -40q-54 8 -77.5 9t-83.5 -5q-46 -5 -62 38q2 -1 6 -1.5t14.5 0.5t18.5 5.5t16 18t10 34.5q11 115 13.5 254t-8.5 263
q-4 34 -20.5 54.5t-31.5 24.5l-14 4q7 19 21 27t45 4q78 -10 159 -1q37 5 54 -2.5t20 -29.5q-3 1 -7 1.5t-15.5 -2t-20.5 -9t-17.5 -24t-11.5 -42.5q-9 -110 -4 -275q126 76 256 98q0 102 -9 174q-4 34 -20.5 55t-31.5 25l-14 4q7 20 21 27.5t44 3.5q78 -10 160 -1
q37 5 54 -2.5t20 -29.5q-3 1 -7 1.5t-15.5 -2t-20.5 -9.5t-17.5 -24t-11.5 -43q-6 -71 -6 -171q82 -8 144 -43q43 -25 65.5 -59.5t21 -63.5t-13.5 -53q-12 -19 -33.5 -31.5t-37.5 -15.5l-16 -3q32 80 -5 123t-123 45q4 -135 15 -247q4 -38 20 -54.5t30 -14.5l13 2
q-11 -26 -30 -35.5t-52 -4.5q-55 9 -78.5 9.5t-82.5 -5.5q-46 -5 -63 39z" />
    <glyph glyph-name="theta" unicode="&#x3b8;" horiz-adv-x="697" 
d="M417 -14q-44 -11 -83 -10q-140 5 -229 103.5t-97 236.5q-4 63 7.5 124t39.5 118t80 101t123 64q45 14 92 14q140 -3 230.5 -100.5t100.5 -234.5q5 -65 -7 -128.5t-41 -122t-85 -103t-131 -62.5zM359 243q-30 2 -50.5 16t-27.5 32t-6.5 36.5t8.5 31.5q21 33 61.5 49
t79.5 15t67 -13q19 -10 30 -23q-2 89 -33.5 156t-84.5 95q-29 14 -71 12q-70 -4 -117 -96t-45 -211q1 -106 39 -183t104 -96q15 -3 31 -3q69 1 112.5 65.5t58.5 163.5q0 17 -10 29t-27.5 16.5t-32 6t-29.5 1.5q-40 -1 -54 -26t-8 -49z" />
    <glyph glyph-name="iota" unicode="&#x3b9;" horiz-adv-x="355" 
d="M36 37q2 -1 6 -1.5t14.5 0t19 5t16 18t9.5 34.5q11 113 14 254t-8 261q-4 34 -20.5 54.5t-30.5 24.5l-15 4q7 19 21 26.5t44 3.5q87 -9 159 0q37 5 54 -3t19 -30q-3 1 -7 1.5t-15 -2t-20 -8.5t-17.5 -23.5t-11.5 -42.5q-8 -119 -4 -261t15 -252q4 -37 20 -53.5t30 -14.5
l13 2q-21 -49 -82 -39q-53 7 -80.5 7t-85.5 -7q-22 -2 -34.5 7.5t-22.5 34.5z" />
    <glyph glyph-name="kappa" unicode="&#x3ba;" horiz-adv-x="1638" 
d="M470 600q22 28 14.5 47t-28.5 29l-20 9q7 19 21 27t45 4q69 -9 191 3q20 2 31.5 -8.5t11.5 -28.5q-8 -1 -21 -4.5t-49 -23t-65 -48.5q-67 -64 -152 -139.5t-119 -108.5q20 -59 82 -88q55 -25 127 -84.5t123.5 -112t151.5 -158.5t150 -156q117 -119 291 -169
q145 -43 232 -10q83 31 52 116q-2 7 -5 14q54 -5 78 -40q10 -20 11 -43.5t-18.5 -52t-57.5 -48.5q-80 -42 -187 -33t-221 55t-220 121q-182 128 -356.5 289t-265.5 314q-23 40 -55 74q3 -143 15 -252q4 -37 19.5 -53.5t29.5 -14.5l14 2q-21 -50 -82 -40q-54 7 -79 7t-83 -7
q-44 -4 -63 42q2 -1 6 -1.5t14.5 0.5t19 5.5t16 18t9.5 34.5q11 114 14 256.5t-8 263.5q-4 34 -20.5 54.5t-31.5 24.5l-15 4q7 20 21 27.5t45 3.5q70 -9 191 3q21 2 32.5 -8t11.5 -28q-3 1 -7 1.5t-15.5 -2t-20.5 -9t-17.5 -24t-11.5 -42.5q-8 -85 -6 -205q6 5 46.5 36
t64.5 49.5t59.5 50t59.5 57.5z" />
    <glyph glyph-name="lambda" unicode="&#x3bb;" horiz-adv-x="832" 
d="M513 33q2 0 5 -0.5t11.5 -1.5t15.5 0t16 4t12.5 9.5t6 16.5t-4.5 26q-80 251 -158 433q-8 18 -12.5 22.5t-11.5 -3.5t-18 -33q-1 0 -1 -2q-19 -45 -80.5 -185.5t-79.5 -184.5q-11 -28 -8 -46.5t16 -28t27 -13.5t25 -4l12 -1q-19 -54 -68 -48q-109 15 -175 8
q-19 -2 -30.5 9.5t-11.5 28.5q3 0 8 -0.5t19 2t27.5 8.5t29.5 20.5t28 36.5q97 176 202 457q0 2 1 3q8 38 4 62t-16 37t-25.5 18.5t-24.5 6.5h-10q13 32 55.5 47.5t88.5 6.5q38 -7 68.5 -28t52.5 -55.5t34 -58.5t27.5 -67t19.5 -52q38 -89 84.5 -210.5t70.5 -178.5
q14 -33 32 -48t29 -14l11 2q-22 -52 -90 -41q-52 7 -75 6.5t-80 -6.5q-42 -5 -59 40z" />
    <glyph glyph-name="mu" unicode="&#x3bc;" horiz-adv-x="893" 
d="M606 33q1 1 9 0t20.5 3t24.5 9.5t21 20.5t10 36q3 117 -4 441q-15 -37 -36 -87q-41 -96 -94 -202t-63 -134q-4 -12 -24 -16.5t-38 -3.5l-17 2q-10 1 -18 7q-11 5 -14 14q-9 27 -61.5 133t-93.5 203q-7 15 -13.5 31.5t-13.5 33t-10 24.5q-1 -120 2 -444q0 -34 21.5 -51.5
t42.5 -17.5h21q-10 -26 -27 -35.5t-46 -4.5q-48 8 -68.5 9t-72.5 -5q-45 -5 -59 35q1 1 9 0t20.5 2.5t24.5 9.5t21 21t10 36q2 53 -5 514q0 26 -7.5 43.5t-18 23.5t-21 8.5t-18.5 1.5l-7 -2q7 20 18.5 27.5t39.5 3.5q36 -5 139 -1q25 1 47 -31q27 -34 55 -97.5t70.5 -179.5
t57.5 -153q13 29 42 95t45.5 103t39.5 87t41 85t33 58q9 15 11 18h1v1q16 16 51 13q12 -1 29 -2t25 -1t22 0.5t31 2.5q33 5 48 -2.5t17 -29.5l-9 3t-20 1.5t-25 -7.5t-20.5 -28t-9.5 -55q-3 -194 2 -500q0 -22 9 -37t21 -21t24.5 -9t21.5 -2h8q-10 -26 -26.5 -35.5
t-45.5 -4.5q-50 8 -68.5 9t-72.5 -5q-45 -5 -59 35z" />
    <glyph glyph-name="nu" unicode="&#x3bd;" horiz-adv-x="781" 
d="M50 35q1 1 9 0t20.5 2.5t24.5 9t21 20.5t10 36q2 54 -5 513q0 26 -7.5 43.5t-18 24t-21 9t-17.5 1.5l-8 -2q7 19 18.5 26.5t38.5 3.5q77 -9 140 0q8 1 21 1q27 5 37 -1q23 -14 51.5 -82.5t70 -174.5t80.5 -176q15 -27 38 -73q0 57 -6 389q0 42 -20 62.5t-39 20.5h-20
q7 19 19 27t39 4q68 -10 140 -1q72 10 76 -28q-3 1 -8.5 2.5t-18.5 0t-23.5 -9t-19 -30t-8.5 -56.5q-2 -301 4 -502q1 -37 26 -47q31 -5 67 17q6 4 6 1l-6 -18q-16 -43 -47 -65.5t-64.5 -23t-64 8.5t-51.5 25q-27 20 -63.5 87.5t-69 143.5t-78.5 165t-88 141q0 -262 3 -426
q0 -22 9 -37t21 -21t24.5 -9t21.5 -3l8 1q-19 -49 -72 -39q-48 8 -68.5 9t-72.5 -5q-46 -5 -59 35z" />
    <glyph glyph-name="xi" unicode="&#x3be;" horiz-adv-x="637" 
d="M468 581q-159 12 -307 2q-24 -1 -39 -11.5t-21.5 -21.5t-19.5 -19t-34 -5q-19 2 -28 34t7 57q11 15 8.5 27t-10.5 20.5t-8.5 24.5t13.5 39q12 18 28 17.5t33 -16.5q36 -34 78 -39q119 -14 285 -6q12 1 22 1.5t18 2.5t13.5 2.5t11.5 4.5t8.5 4.5t7.5 6t6 6.5t7 9t7 9
q6 9 17.5 12t25.5 -5.5t22 -31.5q5 -23 2.5 -32.5t-10 -23t-8.5 -19.5q-1 -9 7.5 -30t7.5 -39q-2 -29 -20 -40t-44 5q-12 8 -24.5 22t-25.5 22.5t-36 10.5zM424 319q-120 9 -231 1q-28 -2 -51 -19.5t-48 -14.5q-15 2 -22.5 27.5t5.5 45.5q12 16 -1 38t3 51q20 30 49 1
q31 -29 59 -33q127 -15 233 -8q18 1 29 2.5t20 7.5t11.5 7.5t10.5 12t9 12.5q5 6 14 8.5t20.5 -4.5t17.5 -25q4 -18 2.5 -25.5t-7.5 -18.5t-7 -16q-1 -7 6 -23.5t5 -31.5q-2 -23 -16 -32t-35 4q-5 3 -14 9.5t-13 9t-12 6.5t-16.5 5.5t-20.5 2.5zM472 10q-160 12 -324 1
q-24 -2 -37.5 -11.5t-17.5 -20t-15.5 -17t-32.5 -3.5q-19 2 -28 33.5t7 56.5q11 15 8.5 27t-10.5 20.5t-8.5 24.5t13.5 39q12 18 28 17.5t33 -15.5q5 -5 13.5 -14t13 -13.5t14.5 -9t22 -5.5q137 -17 305 -6q22 1 36 3t24 8t13 8.5t11.5 14t11.5 15.5q6 8 17.5 11t25.5 -5.5
t22 -31.5q5 -22 3 -31.5t-10 -23.5t-9 -20q-1 -8 7.5 -29.5t7.5 -39.5q-2 -29 -20 -40t-44 5q-13 8 -23.5 21.5t-22 21t-34.5 9.5z" />
    <glyph glyph-name="omicron" unicode="&#x3bf;" horiz-adv-x="728" 
d="M459 0q-42 -13 -82 -13q-140 1 -232 97t-104 233q-5 63 5 124.5t36 119.5t77 103t121 67q43 16 91 17q140 1 233.5 -94t106.5 -232q7 -65 -3 -128.5t-37.5 -123t-82 -105t-129.5 -65.5zM427 651q-33 12 -71 9q-70 -6 -114.5 -99t-39.5 -212q5 -107 45 -182t107 -93
q9 -2 31 -2q56 2 96 50.5t57 119t14 151.5q-2 92 -35.5 161t-89.5 97z" />
    <glyph glyph-name="pi" unicode="&#x3c0;" horiz-adv-x="733" 
d="M1 40q2 -1 6 -1.5t13.5 0t17.5 5t15.5 18t9.5 34.5q10 113 13 254t-8 261q-4 34 -19.5 54.5t-29.5 24.5l-14 4q8 19 20.5 26.5t41.5 3.5q33 -4 132 -4q1 0 5.5 0.5t6.5 0.5q119 1 310 -1h8q71 -2 117 4q36 4 52 -3.5t18 -29.5q-2 1 -6.5 1.5t-15 -2t-19 -8.5t-17 -23.5
t-10.5 -42.5q-8 -116 -4 -260.5t15 -252.5q4 -37 18.5 -53.5t27.5 -14.5l13 2q-10 -26 -28 -35t-50 -4q-53 7 -76.5 6.5t-81.5 -6.5q-20 -2 -32.5 7.5t-21.5 34.5q2 -1 6 -1.5t13.5 0t17.5 5t15.5 18t9.5 34.5q10 113 13 254t-8 261q0 1 -0.5 5t-0.5 5q-34 0 -130 1.5
t-143 0.5q0 -5 -1 -7q-8 -116 -4 -260.5t15 -252.5q4 -37 18.5 -53.5t27.5 -14.5l13 2q-10 -26 -28 -35t-50 -4q-52 7 -75.5 6.5t-81.5 -6.5q-20 -2 -32.5 7.5t-21.5 34.5z" />
    <glyph glyph-name="rho" unicode="&#x3c1;" horiz-adv-x="723" 
d="M50 33q2 -1 6 -1.5t14.5 0t19 5.5t16 18.5t9.5 34.5q11 117 14 255t-8 263q-4 34 -21 54.5t-32 24.5l-14 4q7 20 21 27.5t45 3.5q56 -7 199 2q11 1 24 1q108 8 171.5 3t116.5 -39q41 -27 60.5 -70.5t18 -84.5t-16.5 -77q-12 -34 -47 -74q-69 -78 -217 -64
q-130 13 -116 106q5 34 48 50q35 12 42 -1q2 -2 1 -6q-11 -38 5.5 -57t48.5 -19q21 2 30 4q5 2 13 4q29 14 38.5 56t4.5 89q-4 35 -17.5 59t-35.5 36t-41 17t-45 7q-54 4 -88 -35.5t-40 -112.5v-4q-4 -205 16 -416q4 -37 19.5 -53.5t29.5 -14.5l14 2q-21 -49 -82 -39
q-57 7 -78.5 7t-83.5 -7q-45 -5 -62 42z" />
    <glyph glyph-name="sigma1" unicode="&#x3c2;" 
d="M230 620q36 -45 67 -95.5t53.5 -94t24.5 -46.5q1 -1 1 -2q4 -13 -48.5 -118t-99.5 -164q-7 -8 -9 -13q46 -2 94 -2q9 0 37 -1.5t45 -0.5t40.5 4t39 13t23.5 26q17 40 11 65t-21 37l-16 11q63 16 94 -64q10 -25 15 -65t9.5 -65.5t15.5 -30.5l-22 -29q-36 6 -63.5 7.5
t-69 1t-59.5 -0.5q-34 0 -148 2t-155 2q-6 0 -18.5 -0.5t-19.5 -0.5q-20 -1 -32 18.5t0 32.5q2 0 6.5 1.5t16 7t22.5 13t24.5 22.5t23.5 33q25 46 45 78.5t30.5 47t37 46.5t42.5 53q-13 17 -22 29.5t-17 23.5t-15.5 22t-12.5 18t-12.5 20t-11 19t-12.5 23t-13 24.5t-17 31.5
t-20 36q-16 29 -39 48t-38 24l-15 4q-12 13 0 32.5t32 18.5q7 -1 21.5 -1t21.5 -1h85h32h14h158h49h45.5t43 2t54.5 7l23 -30q-11 -5 -16 -30.5t-10 -65.5t-15 -65q-31 -80 -93 -64q3 1 7 4t13 12.5t14 21.5t3.5 32t-12.5 43q-8 16 -23 26t-39.5 13.5t-39.5 4t-46.5 -1
t-36.5 -1.5q-63 0 -84 1q4 -6 7 -10z" />
    <glyph glyph-name="sigma" unicode="&#x3c3;" 
d="M230 620q36 -45 67 -95.5t53.5 -94t24.5 -46.5q1 -1 1 -2q4 -13 -48.5 -118t-99.5 -164q-7 -8 -9 -13q46 -2 94 -2q9 0 37 -1.5t45 -0.5t40.5 4t39 13t23.5 26q17 40 11 65t-21 37l-16 11q63 16 94 -64q10 -25 15 -65t9.5 -65.5t15.5 -30.5l-22 -29q-36 6 -63.5 7.5
t-69 1t-59.5 -0.5q-34 0 -148 2t-155 2q-6 0 -18.5 -0.5t-19.5 -0.5q-20 -1 -32 18.5t0 32.5q2 0 6.5 1.5t16 7t22.5 13t24.5 22.5t23.5 33q25 46 45 78.5t30.5 47t37 46.5t42.5 53q-13 17 -22 29.5t-17 23.5t-15.5 22t-12.5 18t-12.5 20t-11 19t-12.5 23t-13 24.5t-17 31.5
t-20 36q-16 29 -39 48t-38 24l-15 4q-12 13 0 32.5t32 18.5q7 -1 21.5 -1t21.5 -1h85h32h14h158h49h45.5t43 2t54.5 7l23 -30q-11 -5 -16 -30.5t-10 -65.5t-15 -65q-31 -80 -93 -64q3 1 7 4t13 12.5t14 21.5t3.5 32t-12.5 43q-8 16 -23 26t-39.5 13.5t-39.5 4t-46.5 -1
t-36.5 -1.5q-63 0 -84 1q4 -6 7 -10z" />
    <glyph glyph-name="tau" unicode="&#x3c4;" horiz-adv-x="665" 
d="M176 34q2 -1 6 -1.5t14.5 0t18.5 5t16 18t10 34.5q11 115 13.5 253.5t-8.5 261.5v2q-7 23 -34 29.5t-57 -10t-42 -53.5q-13 -45 -7.5 -72.5t18.5 -38.5l14 -11q-61 -16 -91 69q-10 27 -15 70t-9.5 70.5t-14.5 32.5l22 32q35 -7 61.5 -9t66.5 -1t58 1h5q19 0 87.5 1.5
t95.5 0.5q16 0 36 -2q15 0 46.5 -0.5t46 -0.5t41 2.5t54.5 7.5l23 -32q-11 -5 -16 -32.5t-10 -70.5t-15 -70q-31 -85 -95 -69q2 1 6 3.5t12 13t13 23t4.5 34.5t-9.5 48q-13 37 -44 54t-58 10.5t-32 -29.5q-8 -119 -4 -260t15 -251q4 -37 19.5 -53.5t28.5 -14.5l14 2
q-20 -49 -82 -39q-54 8 -77.5 9t-82.5 -5q-46 -6 -62 38z" />
    <glyph glyph-name="upsilon" unicode="&#x3c5;" horiz-adv-x="717" 
d="M622 162q2 -38 -9.5 -64.5t-45.5 -53.5q-44 -35 -121 -49t-145.5 -8.5t-113.5 21.5q-68 24 -97 59.5t-25 73.5q8 338 -7 465q-4 34 -20 55t-30 25l-15 4q8 19 21 26.5t43 4.5q77 -10 157 -1q37 5 53.5 -2.5t18.5 -30.5q-2 1 -6.5 1.5t-15.5 -2t-20 -9t-17 -23.5t-11 -43
q-14 -160 4 -431q0 -3 1 -5q6 -83 132 -74q21 1 38 4t29 9t21.5 10t15.5 13.5t10 13.5t6 16t3 14.5t2 16t1 14.5q12 268 -3 397q-4 34 -20 55t-30 25l-15 4q7 20 20.5 27.5t43.5 3.5q76 -10 155 -1q36 5 53 -2.5t19 -29.5q-2 1 -6.5 1.5t-15.5 -2t-19.5 -9.5t-17 -24
t-10.5 -43q-7 -80 -9 -257.5t-2 -194.5z" />
    <glyph glyph-name="phi" unicode="&#x3c6;" horiz-adv-x="798" 
d="M295 36q2 -1 6 -1.5t14.5 0t19 5t16.5 18t10 34.5q11 116 13.5 255.5t-8.5 263.5q-2 14 -4 21q-20 36 -53 33q-29 -4 -40.5 -26.5t-16.5 -92.5q-8 -114 36 -127q18 -5 30 -0.5t18 8t6 0.5q0 -24 -14.5 -45t-38 -30.5t-50 -8.5t-53.5 23t-45 63q-14 30 -19 77t6 100t41 84
q35 36 73 40.5t113 -4.5q6 0 8 -1h2q58 -7 200 2q5 0 12 0.5t10 0.5q59 4 89 -1.5t59 -34.5q30 -31 41.5 -84t6.5 -100t-19 -78q-24 -50 -58 -69.5t-63.5 -11t-50.5 32.5t-22 54q0 3 5.5 -0.5t17 -8.5t28.5 0q37 10 29 128q-5 70 -17 89t-42 22q-41 6 -63 -49v-1
q-9 -116 -5 -262.5t16 -254.5q4 -37 19.5 -53.5t29.5 -14.5l14 2q-11 -26 -30 -35.5t-53 -4.5q-56 8 -78 8t-83 -7q-45 -5 -63 42z" />
    <glyph glyph-name="chi" unicode="&#x3c7;" horiz-adv-x="793" 
d="M519 587q31 50 19.5 69.5t-40.5 19.5h-29q8 20 31.5 36t52.5 13q64 -9 153 -1q19 2 30.5 -12.5t11.5 -32.5q-6 -1 -16 -3.5t-37.5 -21.5t-50.5 -50q-25 -33 -70 -92.5t-57 -74.5q-4 -5 -17.5 -25t-22.5 -32q7 -10 20 -30t20 -30q60 -77 176 -214q27 -31 48.5 -50.5
t29.5 -23.5l8 -4q-24 -52 -92 -41q-48 7 -75 7.5t-80 -5.5q-43 -5 -60 41q2 0 6 1t12 5.5t12 11t1.5 21t-13.5 32.5q-3 5 -9 14t-10.5 15.5t-8.5 12.5l-6 9v1q-1 1 -1 2q-8 12 -31.5 46.5t-36.5 53.5q-25 -34 -68.5 -93t-44.5 -60q-26 -40 -15 -54.5t38 -12.5l27 2
q-24 -53 -71 -45q-49 8 -160 2q-20 -1 -33.5 10.5t-12.5 27.5q1 0 3 -0.5t10 1.5t17 6.5t24 17.5t31 31q53 60 122 147q10 13 37 48t40 52q-91 133 -92 135q-7 9 -43.5 59.5t-57.5 78.5q-21 29 -42.5 48.5t-31.5 24.5l-11 5q22 52 91 41t155 -1q44 3 60 -41q-3 -1 -7.5 -2
t-14.5 -7t-15.5 -14t-5 -23t11.5 -34q48 -75 96 -147q69 91 95 129z" />
    <glyph glyph-name="psi" unicode="&#x3c8;" horiz-adv-x="652" 
d="M163 41q2 -1 6 -1.5t14.5 0t18.5 5t16 18t10 34.5q9 102 12 211q-6 -3 -14 -3q-75 -8 -112.5 -4t-72.5 34q-29 25 -38 69.5t-4 81t15 66.5q35 106 77 149q12 11 12 4q-28 -174 16 -255q33 -62 102 -62h1q15 0 17 6q2 5 2 28q0 25 1 44q-2 84 -9 143q-4 34 -20.5 54.5
t-30.5 24.5l-15 4q7 19 21 26.5t45 3.5q74 -8 197 2q20 2 28 -7.5t6 -26.5q-3 1 -7 1.5t-15.5 -2t-20.5 -9t-17.5 -24t-10.5 -42.5q-6 -59 -6 -180q2 -26 10 -35.5t25 -9.5q53 0 93 81q40 79 14 237q0 4 3 3q15 -4 44 -56q24 -43 44 -101q11 -31 15.5 -67t-5 -82t-39.5 -72
q-36 -30 -75.5 -34t-117.5 3q-3 1 -8 1q6 -118 14 -198q4 -37 19.5 -53.5t28.5 -14.5l14 2q-11 -25 -30 -34.5t-51 -4.5q-49 7 -75 7t-85 -6q-43 -6 -62 41z" />
    <glyph glyph-name="omega" unicode="&#x3c9;" horiz-adv-x="640" 
d="M209 109q1 12 0 24q-3 29 -25 59t-52 49q-69 45 -88 78q-54 86 -46 186q8 95 76.5 162.5t186.5 78.5q28 5 49 4q138 -2 215.5 -69t86.5 -170q12 -147 -57 -211q-33 -32 -74 -61q-74 -56 -79 -104q-1 -8 -1 -25v-4q1 -30 54 -31.5t64 26.5q12 34 7 54t-18 28l-12 8
q62 10 91 -51q10 -21 14.5 -52.5t9 -51.5t14.5 -24l-22 -23q-36 5 -82 7t-82.5 1t-77.5 0h-2q-34 -2 -36 26q-3 22 -0.5 90t8.5 106q6 37 16.5 56.5t33 37.5t26.5 23q43 47 43 144q0 81 -31 136.5t-87 65.5q-70 9 -115.5 -36.5t-54.5 -126.5q0 -5 -0.5 -14t-1.5 -14v-8
q0 -94 50 -160q6 -8 26 -24t32.5 -37t17.5 -57q4 -25 4.5 -61t-1 -76.5t-1.5 -46.5q0 -8 -7 -13.5t-18.5 -7t-21 -1.5t-22.5 0.5t-15 0.5h-6q-120 5 -193 -5l-23 25q12 4 17 25.5t11 55t16 55.5q32 65 97 53l-6 -3t-12.5 -10t-13.5 -18t-5 -27.5t9 -37.5q14 -30 62 -34
t51 26q1 2 1 4z" />
    <glyph glyph-name="omegatonos" unicode="&#x3ce;" horiz-adv-x="500" 
d="M253 250q1 14 -21 47q-21 -26 -22 -44v-2q12 -4 40 -1h3zM128 324q1 -1 1 -2q1 -2 1 -3q3 -15 16 -21q12 -7 29 -4q17 5 26 15q10 12 6 27q-3 13 -15 21q-14 7 -30 4q-16 -2 -26 -12q-10 -8 -8 -22v-3zM253 335q0 -1 2 -7q7 -25 29 -32q31 -8 42 3q17 18 9 34
q-6 17 -30 25q-23 8 -38 1q-13 -7 -14 -24zM330 58q20 -6 29 -9q17 -5 28 -7.5t19.5 -1.5t12 2t12.5 6t12 7q12 6 27 -1.5t16 -32.5q0 -13 -5 -21t-14 -14t-11 -10q-3 -5 -1.5 -21t-3.5 -29q-9 -18 -25 -20t-32 15q-8 9 -12.5 20.5t-11.5 19.5t-24 16q-39 16 -104 41
q-76 -37 -108 -55q-17 -9 -24 -20t-7 -19t-6 -16.5t-22 -13.5q-15 -5 -31 12t-11 38q3 13 -2.5 20t-14 9t-13.5 12.5t-2 28.5q6 32 44 23q4 -1 11.5 -3.5t11 -3.5t9.5 -1.5t12 0.5t14 4q25 8 47 18q-17 5 -49 15q-27 8 -47 -5t-43 -1q-14 5 -13 29.5t19 35.5q18 13 13 21
t-4.5 22.5t19.5 28.5q27 18 47 -16q3 -4 7 -12.5t6.5 -12.5t9 -9.5t15.5 -9.5q48 -23 109 -47q58 28 87 45q16 8 25 14t14.5 13t7 10t4.5 13t4 14q4 13 18.5 17.5t36.5 -11.5q9 -8 11 -18t0.5 -20t-0.5 -14q1 -6 14 -16.5t17 -22.5q7 -19 -2.5 -32t-32.5 -12q-12 1 -25 5.5
t-20 5t-29 -5.5q-12 -4 -39 -17zM232 550q99 -3 141 -71t0 -155q0 -1 -1 -2q-3 -8 0 -22q2 -8 2 -9q1 -14 -3 -26q-8 -18 -24 -22q-7 -3 -25 -3q-15 0 -18 -3q-7 -6 -3 -18q3 -12 3 -15q0 -12 -9 -21q-13 -12 -59 -13q-18 -1 -29 0q-19 3 -31 11q-13 7 -16 22q-1 7 2 19v2
q1 7 0 7q-2 4 -17 5h-2q-7 1 -18 3q-13 3 -20 12q-6 6 -9 21q-2 13 -3 22v9q-1 14 -5 23v1l-2 4q0 1 -0.5 2.5t-1.5 2.5q-28 78 5 137q37 66 135 77h3h5z" />
    <glyph glyph-name="quoteleft" unicode="&#x2018;" horiz-adv-x="227" 
d="M212 604l-71 -94l-88 -1q38 56 79 85q18 12 38 14.5t31 -0.5z" />
    <glyph glyph-name="quoteright" unicode="&#x2019;" horiz-adv-x="410" 
d="M236 519l71 95h88q-38 -56 -79 -84q-18 -12 -38 -15t-31 1z" />
    <glyph glyph-name="quotedblleft" unicode="&#x201c;" horiz-adv-x="376" 
d="M181 582l-70 -93h-87q37 55 78 83q18 12 38 14.5t30 -0.5zM361 584l-70 -93h-87q37 56 78 83q18 12 38 14.5t30 -0.5z" />
    <glyph glyph-name="quotedblright" unicode="&#x201d;" horiz-adv-x="410" 
d="M236 519l71 95h88q-38 -56 -79 -84q-18 -12 -38 -15t-31 1zM53 517l71 94h88q-37 -56 -79 -84q-18 -12 -38 -14.5t-31 1.5z" />
    <glyph glyph-name="uni3000" unicode="&#x3000;" horiz-adv-x="1000" 
 />
    <glyph glyph-name="uniF8FE" unicode="&#xf8fe;" horiz-adv-x="300" 
 />
    </font>
</defs>
</svg>
